<svg width="21" height="21" viewBox="0 0 21 21" fill="none" xmlns="http://www.w3.org/2000/svg">
<path d="M12.3021 1.65625L14.1354 5.32292C14.3854 5.83333 15.0521 6.32292 15.6146 6.41667L18.9375 6.96875C21.0625 7.32292 21.5625 8.86458 20.0313 10.3854L17.4479 12.9688C17.0104 13.4063 16.7709 14.25 16.9063 14.8542L17.6459 18.0521C18.2292 20.5833 16.8854 21.5625 14.6459 20.2396L11.5313 18.3958C10.9688 18.0625 10.0417 18.0625 9.46878 18.3958L6.35419 20.2396C4.12503 21.5625 2.77086 20.5729 3.35419 18.0521L4.09378 14.8542C4.22919 14.25 3.98961 13.4063 3.55211 12.9688L0.968777 10.3854C-0.552056 8.86458 -0.0624724 7.32292 2.06253 6.96875L5.38544 6.41667C5.93753 6.32292 6.60419 5.83333 6.85419 5.32292L8.68753 1.65625C9.68753 -0.333333 11.3125 -0.333333 12.3021 1.65625V1.65625Z" fill="#00D1FF"/>
</svg>
