<svg width="12" height="12" viewBox="0 0 12 12" fill="none" xmlns="http://www.w3.org/2000/svg">
<path d="M6.86495 1.75482L7.74495 3.51482C7.86495 3.75982 8.18495 3.99482 8.45495 4.03982L10.05 4.30482C11.07 4.47482 11.31 5.21482 10.575 5.94482L9.33495 7.18482C9.12495 7.39482 9.00995 7.79983 9.07495 8.08983L9.42995 9.62483C9.70995 10.8398 9.06495 11.3098 7.98995 10.6748L6.49495 9.78983C6.22495 9.62983 5.77995 9.62983 5.50495 9.78983L4.00995 10.6748C2.93995 11.3098 2.28995 10.8348 2.56995 9.62483L2.92495 8.08983C2.98995 7.79983 2.87495 7.39482 2.66495 7.18482L1.42495 5.94482C0.694954 5.21482 0.929955 4.47482 1.94995 4.30482L3.54495 4.03982C3.80995 3.99482 4.12995 3.75982 4.24995 3.51482L5.12995 1.75482C5.60995 0.799824 6.38995 0.799824 6.86495 1.75482Z" fill="#FFD057"/>
</svg>
