<svg width="13" height="12" viewBox="0 0 13 12" fill="none" xmlns="http://www.w3.org/2000/svg">
<path d="M7.06564 1.75507L7.94564 3.51507C8.06564 3.76007 8.38564 3.99507 8.65564 4.04007L10.2506 4.30507C11.2706 4.47507 11.5106 5.21507 10.7756 5.94507L9.53564 7.18507C9.32564 7.39507 9.21064 7.80007 9.27564 8.09007L9.63064 9.62507C9.91064 10.8401 9.26564 11.3101 8.19064 10.6751L6.69564 9.79007C6.42564 9.63007 5.98064 9.63007 5.70564 9.79007L4.21064 10.6751C3.14064 11.3101 2.49064 10.8351 2.77064 9.62507L3.12564 8.09007C3.19064 7.80007 3.07564 7.39507 2.86564 7.18507L1.62564 5.94507C0.895638 5.21507 1.13064 4.47507 2.15064 4.30507L3.74564 4.04007C4.01064 3.99507 4.33064 3.76007 4.45064 3.51507L5.33064 1.75507C5.81064 0.800068 6.59064 0.800068 7.06564 1.75507Z" fill="#FFD057"/>
</svg>
