<svg width="48" height="57" viewBox="0 0 48 57" fill="none" xmlns="http://www.w3.org/2000/svg">
<path d="M24.7065 56.9066H22.297C16.1831 56.9066 11.2166 51.9237 11.2166 45.8262V38.3682C11.2166 37.8601 11.6263 37.4503 12.1345 37.4503H34.8854C35.3935 37.4503 35.8033 37.8601 35.8033 38.3682V45.8262C35.8033 51.9401 30.8368 56.9066 24.7065 56.9066ZM13.036 39.2861V45.8262C13.036 50.9239 17.1993 55.0708 22.297 55.0708H24.7065C29.8041 55.0708 33.9511 50.9239 33.9511 45.8262V39.2861H13.036Z" fill="black"/>
<path d="M34.8853 39.2861H12.118C11.7082 39.2861 11.364 39.0239 11.2329 38.6305L0.0376869 1.19303C-0.0606601 0.865204 0.0376869 0.504598 0.283555 0.25873C0.529422 0.0128624 0.906419 -0.0690935 1.21785 0.0620359L9.83961 3.01245L15.9371 0.0948183C16.183 -0.01992 16.4453 -0.01992 16.6911 0.0784271L23.5098 3.01245L30.6728 0.0784271C30.9187 -0.01992 31.1809 -0.01992 31.4104 0.0948183L37.6227 3.01245L45.7691 0.0620359C46.0969 -0.0527023 46.4575 0.0128624 46.7198 0.25873C46.982 0.504598 47.064 0.848812 46.9656 1.19303L35.7705 38.6469C35.6557 39.0239 35.2951 39.2861 34.8853 39.2861ZM12.8064 37.4503H34.1969L44.6872 2.40597L37.9013 4.86465C37.6718 4.94661 37.4096 4.93022 37.1965 4.83187L30.9842 1.91424L23.8377 4.84826C23.6082 4.94661 23.3459 4.94661 23.1329 4.83187L16.3469 1.91424L10.2986 4.81548C10.0855 4.91382 9.82322 4.93022 9.59374 4.84826L2.31606 2.3568L12.8064 37.4503Z" fill="black"/>
<path d="M23.5099 39.2861C23.0018 39.2861 22.592 38.8763 22.592 38.3682V3.99591C22.592 3.48778 23.0018 3.078 23.5099 3.078C24.0181 3.078 24.4279 3.48778 24.4279 3.99591V38.3682C24.4279 38.8763 24.0181 39.2861 23.5099 39.2861Z" fill="black"/>
<path d="M16.429 39.2861C16.0028 39.2861 15.6094 38.9911 15.5275 38.5485L8.75793 4.17623C8.65958 3.6845 8.9874 3.19276 9.47914 3.09441C9.98726 2.99607 10.4626 3.32389 10.561 3.81562L17.3305 38.1879C17.4289 38.6797 17.101 39.1714 16.6093 39.2697C16.5437 39.2861 16.4782 39.2861 16.429 39.2861Z" fill="black"/>
<path d="M30.0663 39.2861C30.0008 39.2861 29.9352 39.2697 29.8696 39.2697C29.3779 39.1714 29.0501 38.6797 29.1648 38.1715L36.4425 3.79924C36.5408 3.3075 37.0326 2.99607 37.5407 3.09441C38.0324 3.19276 38.3603 3.6845 38.2455 4.19262L30.9678 38.5649C30.8695 38.9911 30.4925 39.2861 30.0663 39.2861Z" fill="black"/>
</svg>
