<svg width="90" height="76" viewBox="0 0 90 76" fill="none" xmlns="http://www.w3.org/2000/svg">
<path d="M14.4 57.38V58.88H22.62V57.38H14.4ZM6.02 66.86V68.36H23.98V66.86H6.02ZM13.54 51.2V67.66H15.12V51.2H13.54ZM33.56 57.86H41.76V59.12H33.56V57.86ZM33.56 55.7H41.76V56.94H33.56V55.7ZM32.18 54.76V60.08H43.2V54.76H32.18ZM31.2 61.38L31.34 62.6C34.28 62.54 38.54 62.4 42.6 62.28L42.64 61.2C38.46 61.3 34.04 61.38 31.2 61.38ZM40.12 60.28C41.26 61.12 42.6 62.34 43.24 63.14L44.32 62.46C43.66 61.66 42.28 60.48 41.14 59.68L40.12 60.28ZM36.88 51.06V61.94L38.34 61.82V51.06H36.88ZM30.8 63.66V64.88H44.2V63.66H30.8ZM39.92 61.94V67.7C39.92 67.96 39.84 68.04 39.54 68.04C39.2 68.08 38.18 68.08 36.96 68.04C37.14 68.42 37.34 68.94 37.42 69.32C38.96 69.32 39.96 69.34 40.58 69.12C41.2 68.92 41.38 68.54 41.38 67.72V61.94H39.92ZM32.94 65.58C33.88 66.38 34.96 67.54 35.44 68.3L36.62 67.48C36.08 66.74 34.98 65.64 34.04 64.88L32.94 65.58ZM31.36 52.46V53.62H44V52.46H31.36ZM30.28 50.98C29.16 54.02 27.28 57.02 25.3 58.96C25.58 59.3 26 60.1 26.16 60.44C28.32 58.2 30.38 54.82 31.7 51.42L30.28 50.98ZM28.2 56.14V69.28H29.64V54.74L29.6 54.72L28.2 56.14ZM46.84 51.7799V64.24H48.26V51.7799H46.84ZM47.6 51.7799V53.12H51.28V61.86H47.6V63.24H52.68V51.7799H47.6ZM47.58 56.62V57.96H52V56.62H47.58ZM53.54 51.74V53.08H62.5V51.74H53.54ZM62.02 51.74V51.94C61.88 54.68 61.72 55.7 61.42 56C61.28 56.14 61.1 56.18 60.8 56.18C60.48 56.18 59.66 56.16 58.8 56.08C59 56.44 59.14 56.96 59.18 57.34C60.1 57.38 60.98 57.38 61.44 57.34C61.96 57.3 62.32 57.2 62.62 56.88C63.06 56.42 63.24 55.22 63.44 52.32C63.46 52.12 63.46 51.74 63.46 51.74H62.02ZM57.02 52.16C56.76 54.52 55.96 56.08 52.9 56.92C53.22 57.18 53.6 57.7 53.74 58.04C57.18 57 58.16 55.08 58.52 52.16H57.02ZM55.56 59.58H61.4V62.62H55.56V59.58ZM54.14 58.32V63.88H62.88V58.32H54.14ZM51.8 65.22C52.04 66.52 52.2 68.22 52.2 69.24L53.68 69.02C53.66 68.02 53.44 66.36 53.18 65.06L51.8 65.22ZM56.08 65.16C56.6 66.44 57.1 68.16 57.28 69.18L58.76 68.86C58.56 67.82 58.02 66.14 57.48 64.9L56.08 65.16ZM60.16 65.04C61.1 66.38 62.22 68.22 62.68 69.34L64.12 68.7C63.62 67.58 62.46 65.8 61.5 64.5L60.16 65.04ZM48.48 64.64C47.8 66.1 46.76 67.76 45.84 68.78L47.28 69.4C48.2 68.26 49.2 66.54 49.9 65.04L48.48 64.64ZM69.38 56.08V57.64H83.06V56.08H69.38ZM75.84 50.9399V56.8H77.42V50.9399H75.84ZM68.58 51.42V58.1C68.58 61.64 68.3 65.34 65.76 68.18C66.12 68.44 66.68 69 66.92 69.34C69.8 66.2 70.14 62.08 70.14 58.1V51.42H68.58ZM69.32 60.82V62.38H78.34V69.32H79.96V60.82H69.32Z" fill="#AAAAAA"/>
<g clip-path="url(#clip0_192_1841)">
<path d="M51.4207 32.6534C51.4207 34.8726 51.4207 37.0072 51.4207 39.1312C51.4207 40.2725 51.0931 40.5895 49.9307 40.5895C46.7922 40.5895 43.6642 40.5895 40.5257 40.5895C39.5113 40.5895 39.152 40.2302 39.152 39.2263C39.152 37.2502 39.152 35.2847 39.152 33.3086C39.152 33.1184 39.152 32.9282 39.152 32.6534C38.5813 32.6534 38.0635 32.6534 37.5351 32.6534C34.9778 32.6534 32.4311 32.664 29.8738 32.664C25.5411 32.664 21.6101 29.5677 20.585 25.3513C19.3698 20.3107 22.0962 15.3546 27.0417 13.7166C27.4221 13.5898 27.5595 13.4102 27.6124 13.0297C28.3204 8.32723 32.2514 5.22041 36.9645 5.65367C37.7782 5.72764 38.5708 5.98126 39.4373 6.17147C40.0819 4.94566 40.9062 3.79381 42.0157 2.86387C45.3973 0.0106738 49.2333 -0.760747 53.3651 0.792662C57.497 2.34607 59.843 5.47403 60.4981 9.84893C60.551 10.1977 60.6249 10.3562 61.0159 10.3984C65.9721 10.8951 70.0828 14.7945 70.8436 19.6766C71.6256 24.7807 69.0366 29.4938 64.313 31.5755C62.6645 32.3047 60.9314 32.6534 59.1349 32.6534C56.789 32.6534 54.4536 32.664 52.1076 32.6745C51.8963 32.664 51.6955 32.6534 51.4207 32.6534ZM39.1203 27.4014C38.4122 27.4014 37.7571 27.3908 37.0913 27.4014C36.5629 27.412 36.1508 27.2323 35.95 26.7251C35.7598 26.2284 35.9289 25.8163 36.3093 25.4464C39.1203 22.6566 41.9101 19.8457 44.721 17.0453C45.4079 16.3585 45.9362 16.369 46.6126 17.0559C48.1871 18.6199 49.7511 20.1839 51.3256 21.7584C52.562 22.9948 53.7878 24.2206 55.0136 25.457C55.5632 26.0171 55.6054 26.7145 55.0771 27.1161C54.834 27.2957 54.4641 27.3803 54.1577 27.4014C53.27 27.4331 52.3718 27.412 51.463 27.412C51.463 28.4793 51.463 29.4832 51.463 30.4977C51.6004 30.5082 51.7166 30.5399 51.8434 30.5399C54.3479 30.5294 56.8418 30.5716 59.3463 30.4977C60.3502 30.466 61.3964 30.3286 62.358 30.0221C66.0672 28.8069 68.4343 26.313 68.8147 22.3608C69.1845 18.6093 67.5889 15.6927 64.3869 13.6955C62.9603 12.8078 61.3752 12.4591 59.695 12.4591C58.8708 12.4591 58.522 12.0998 58.5009 11.265C58.4903 10.9796 58.4692 10.7049 58.4481 10.4196C58.0782 6.28772 54.9185 2.90614 50.8607 2.28267C46.7288 1.64862 42.7237 3.89948 41.1175 7.74602C40.642 8.87673 40.2087 9.04581 39.1414 8.48574C35.0412 6.34055 30.1063 9.04581 29.7153 13.6638C29.5779 15.2383 29.5779 15.2383 28.0879 15.6399C24.4421 16.6226 22.0433 20.1944 22.5294 23.9247C23.0155 27.7396 26.2386 30.5822 30.064 30.5716C32.9172 30.5716 35.7704 30.5611 38.6236 30.5611C38.7927 30.5611 38.9617 30.5399 39.1731 30.5294C39.1203 29.4938 39.1203 28.5004 39.1203 27.4014ZM49.2967 38.4338C49.2967 38.1696 49.2967 37.9582 49.2967 37.7575C49.2967 33.9955 49.2967 30.2229 49.2967 26.4609C49.2967 25.6789 49.6771 25.2879 50.4591 25.2774C50.8501 25.2668 51.2411 25.2774 51.6743 25.2774C49.6137 23.2273 47.6165 21.23 45.7249 19.3596C43.7594 21.304 41.7515 23.3012 39.7754 25.2562C41.1598 25.383 41.276 25.5098 41.276 27.0315C41.276 30.6245 41.276 34.2174 41.276 37.7997C41.276 38.0005 41.276 38.2013 41.276 38.4338C43.9813 38.4338 46.5914 38.4338 49.2967 38.4338Z" fill="#AAAAAA"/>
</g>
<defs>
<clipPath id="clip0_192_1841">
<rect width="50.6813" height="40.6" fill="white" transform="translate(20.2998)"/>
</clipPath>
</defs>
</svg>
