<svg width="25" height="25" viewBox="0 0 25 25" fill="none" xmlns="http://www.w3.org/2000/svg">
<path d="M13.4067 4.10159L13.4077 4.10346L15.2395 7.76701C15.4544 8.20351 15.8078 8.56779 16.1641 8.83071C16.5222 9.09493 16.9738 9.32366 17.4502 9.40306L17.4507 9.40314L20.7731 9.95514C20.7733 9.95517 20.7735 9.9552 20.7736 9.95523C21.6632 10.1036 21.8691 10.4388 21.9035 10.5456C21.9371 10.6502 21.9671 11.0397 21.3266 11.6759L21.3242 11.6783L18.7408 14.2616C18.3722 14.6303 18.1321 15.1154 18.0009 15.5738C17.8695 16.0326 17.8175 16.5687 17.9305 17.0729L17.9305 17.0729L17.932 17.0795L18.6714 20.2767C18.6714 20.2767 18.6714 20.2767 18.6714 20.2768C18.9436 21.4579 18.6403 21.7649 18.6154 21.7831C18.5887 21.8025 18.2005 21.9963 17.1553 21.3791C17.1552 21.379 17.1552 21.379 17.1551 21.379C17.1549 21.3788 17.1547 21.3787 17.1545 21.3786L14.0411 19.5355C14.0409 19.5355 14.0408 19.5354 14.0407 19.5353C13.5676 19.2551 13.0074 19.1458 12.5039 19.1458C11.9994 19.1458 11.4403 19.2555 10.9659 19.5315L10.9659 19.5315L10.9594 19.5353L7.84479 21.3791L7.84384 21.3796C6.80808 21.9943 6.41843 21.8009 6.38894 21.7794C6.36024 21.7585 6.05755 21.4482 6.32845 20.2775L6.32848 20.2774L7.06806 17.0795L7.06808 17.0795L7.06957 17.0729C7.18257 16.5687 7.13052 16.0326 6.99917 15.5738C6.86796 15.1154 6.62783 14.6303 6.25922 14.2616L3.67588 11.6783C3.03947 11.0419 3.06691 10.6508 3.10107 10.5438C3.13493 10.4378 3.33782 10.1034 4.22642 9.95523C4.22651 9.95521 4.22659 9.9552 4.22667 9.95519C4.22675 9.95517 4.22684 9.95516 4.22693 9.95514L7.54934 9.40314L7.54934 9.40315L7.55286 9.40255C8.02505 9.32237 8.47372 9.09253 8.8287 8.82932C9.18244 8.56704 9.53542 8.2032 9.75018 7.76701L11.581 4.10533C11.5812 4.10505 11.5813 4.10476 11.5815 4.10447C12.009 3.25426 12.3986 3.16406 12.4987 3.16406C12.5971 3.16406 12.9842 3.2521 13.4067 4.10159Z" stroke="#AAAAAA" stroke-width="2" stroke-linecap="round" stroke-linejoin="round"/>
</svg>
