<svg width="69" height="69" viewBox="0 0 69 69" fill="none" xmlns="http://www.w3.org/2000/svg">
<path d="M34.5 67C52.4493 67 67 52.4493 67 34.5C67 16.5507 52.4493 2 34.5 2C16.5507 2 2 16.5507 2 34.5C2 52.4493 16.5507 67 34.5 67Z" stroke="black" stroke-width="2.5" stroke-linecap="round" stroke-linejoin="round"/>
<path d="M64.4511 34.3392C56.6197 33.7093 49.2816 30.2639 43.7948 24.6405C38.308 19.0171 35.044 11.5965 34.6069 3.75195" stroke="black" stroke-width="2.5" stroke-linecap="round" stroke-linejoin="round"/>
<path d="M34.3306 64.5642C33.7245 56.7141 30.2893 49.351 24.6632 43.8429C19.0372 38.3348 11.6029 35.0564 3.7417 34.6168" stroke="black" stroke-width="2.5" stroke-linecap="round" stroke-linejoin="round"/>
<path d="M11.52 11.5198L57.4804 57.4802" stroke="black" stroke-width="2.5" stroke-linecap="round" stroke-linejoin="round"/>
<path d="M11.52 57.4802L57.4804 11.5198" stroke="black" stroke-width="2.5" stroke-linecap="round" stroke-linejoin="round"/>
</svg>
