<svg width="65" height="65" viewBox="0 0 65 65" fill="none" xmlns="http://www.w3.org/2000/svg">
<g clip-path="url(#clip0_9_114)">
<path d="M32.5 65C14.4857 65 0 50.3286 0 32.5C0 26 1.85714 19.8714 5.38571 14.4857C8.35714 10.0286 12.4429 6.31429 17.0857 3.9C21.7286 1.3 27.1143 0 32.5 0C44.7571 0 55.7143 6.68571 61.2857 17.6429C62.4 19.6857 63.1429 21.7286 63.7 23.9571C64.4429 26.7429 64.8143 29.7143 64.8143 32.5C65 50.3286 50.3286 65 32.5 65ZM32.5 2.41429C27.4857 2.41429 22.6571 3.71429 18.2 5.94286C13.7429 8.35714 10.0286 11.7 7.42857 15.7857C4.08571 20.8 2.41429 26.5571 2.41429 32.5C2.41429 49.2143 15.9714 62.5857 32.5 62.5857C49.0286 62.5857 62.5857 49.0286 62.5857 32.5C62.5857 29.7143 62.2143 27.1143 61.4714 24.5143C60.9143 22.4714 60.1714 20.6143 59.2429 18.7571C54.0429 8.54286 43.8286 2.41429 32.5 2.41429Z" fill="black"/>
<path d="M30.8286 48.1C16.3429 46.8 4.82861 34.3571 4.82861 19.6857C4.82861 18.2 5.01433 16.5286 5.20004 15.0429C5.38576 14.4857 5.9429 13.9286 6.50004 14.1143C7.05719 14.3 7.61433 14.8571 7.42861 15.4143C7.2429 16.7143 7.2429 18.2 7.2429 19.6857C7.2429 33.0571 17.6429 44.5714 30.8286 45.6857C31.3858 45.6857 31.9429 46.2429 31.9429 46.9857C31.9429 47.5429 31.3858 48.1 30.8286 48.1Z" fill="black"/>
<path d="M33.6144 33.6143C33.4287 33.6143 33.2429 33.6143 33.2429 33.6143C23.0287 29.7143 16.1572 19.8714 16.1572 8.91428C16.1572 7.42857 16.3429 6.12856 16.5287 4.82856C16.5287 4.08571 17.2715 3.71428 17.8287 3.71428C18.3858 3.89999 18.9429 4.45714 18.7572 5.01428C18.5715 6.31428 18.5715 7.61428 18.5715 8.91428C18.5715 18.9429 24.8858 28.0429 34.1715 31.3857C34.7287 31.5714 35.1001 32.3143 34.9144 32.8714C34.5429 33.4286 34.1715 33.6143 33.6144 33.6143Z" fill="black"/>
<path d="M30.2715 64.8143C29.7143 64.8143 29.3429 64.4429 29.1572 64.0714C28.9715 63.5143 29.3429 62.7714 29.9001 62.5857C39.0001 59.4286 45.5001 51.6286 46.9858 42.1571C47.3572 40.3 47.3572 38.2571 47.1715 36.4C46.9858 33.6143 46.4286 30.8286 45.3143 28.2286C45.1286 27.6714 45.3143 26.9286 45.8715 26.7429C46.4286 26.5571 47.1715 26.7429 47.3572 27.3C48.4715 30.0857 49.2143 33.2429 49.4001 36.2143C49.5858 38.4429 49.4001 40.4857 49.0286 42.5286C47.3572 52.9286 40.3001 61.4714 30.2715 64.8143C30.4572 64.8143 30.6429 64.8143 30.2715 64.8143Z" fill="black"/>
<path d="M15.6001 59.9857C15.0429 59.9857 14.6715 59.6143 14.4858 59.0571C14.3001 58.5 14.6715 57.7571 15.4144 57.5714C20.0572 56.6429 26.7429 51.8143 29.7144 46.0571C30.6429 44.3857 31.2001 42.7143 31.7572 41.2286C32.5001 38.4429 32.6858 35.4714 32.5001 32.6857C32.5001 32.1286 32.8715 31.3857 33.6144 31.3857C34.3572 31.3857 34.9144 31.7571 34.9144 32.5C35.2858 35.6571 34.9144 38.8143 34.1715 41.9714C33.8001 43.6429 33.0572 45.3143 31.9429 47.3571C28.9715 53.1143 21.9144 58.6857 16.1572 59.9857C15.7858 59.9857 15.7858 59.9857 15.6001 59.9857Z" fill="black"/>
<path d="M21.5429 23.9571C21.3572 23.9571 20.9858 23.9571 20.8 23.7714C20.2429 23.4 20.2429 22.6571 20.6143 22.1C22.2858 19.8714 24.1429 18.0143 26.3715 16.3429C36.5858 8.72858 50.7 8.91429 60.7286 16.7143C61.2858 16.9 61.2858 17.6429 60.9143 18.2C60.5429 18.7571 59.8 18.7571 59.2429 18.3857C50.1429 11.3286 37.1429 11.1429 27.6715 18.2C25.6286 19.6857 23.9572 21.5429 22.4715 23.5857C22.2858 23.7714 21.9143 23.9571 21.5429 23.9571Z" fill="black"/>
<path d="M63.8856 33.8C63.6999 33.8 63.3285 33.8 63.1428 33.6143C61.2856 32.3143 59.4285 31.2 57.1999 30.4571C49.5856 27.4857 41.0428 28.7857 34.357 33.6143C33.7999 33.9857 33.057 33.9857 32.6856 33.4286C32.3142 32.8714 32.3142 32.1286 32.8713 31.7571C40.1142 26.3714 49.3999 25.0714 57.9428 28.2286C60.357 29.1571 62.3999 30.2714 64.4428 31.7571C64.9999 32.1286 64.9999 32.8714 64.6285 33.4286C64.4428 33.6143 64.0713 33.8 63.8856 33.8Z" fill="black"/>
</g>
<defs>
<clipPath id="clip0_9_114">
<rect width="65" height="65" fill="white"/>
</clipPath>
</defs>
</svg>
