<svg id="圖層_1" data-name="圖層 1" xmlns="http://www.w3.org/2000/svg" viewBox="0 0 40 40"><path d="M14.83,17.5a2.65,2.65,0,0,0-1.14-1.13A3.73,3.73,0,0,0,11.94,16a3.63,3.63,0,0,0-2.8,1.15,4.33,4.33,0,0,0-1.05,3.05A4.37,4.37,0,0,0,9.2,23.36a4,4,0,0,0,3,1.15,3.67,3.67,0,0,0,2.24-.67,3.8,3.8,0,0,0,1.33-1.93H11.24V19.26h7.82V22.6a7.13,7.13,0,0,1-1.36,2.5A7.25,7.25,0,0,1,15.27,27a7.55,7.55,0,0,1-3.31.71,7.83,7.83,0,0,1-3.9-1,6.8,6.8,0,0,1-2.67-2.65,7.89,7.89,0,0,1-.95-3.89,7.92,7.92,0,0,1,.95-3.89,6.9,6.9,0,0,1,2.66-2.67,7.79,7.79,0,0,1,3.89-.95A7.5,7.5,0,0,1,16.4,14a6,6,0,0,1,2.4,3.55Z"/><path d="M24.21,26.76a7.34,7.34,0,0,1-2.75-2.7,7.57,7.57,0,0,1-1-3.9,7.47,7.47,0,0,1,1-3.88,7.25,7.25,0,0,1,2.75-2.69,8,8,0,0,1,7.62,0,7,7,0,0,1,2.73,2.69,7.55,7.55,0,0,1,1,3.88,7.56,7.56,0,0,1-1,3.9,7.22,7.22,0,0,1-2.73,2.7,7.66,7.66,0,0,1-3.8,1A7.76,7.76,0,0,1,24.21,26.76Zm6.64-3.49a4.49,4.49,0,0,0,1.06-3.11A4.5,4.5,0,0,0,30.85,17,3.66,3.66,0,0,0,28,15.88,3.65,3.65,0,0,0,25.18,17a4.45,4.45,0,0,0-1.06,3.13,4.45,4.45,0,0,0,1.06,3.12A3.63,3.63,0,0,0,28,24.45,3.64,3.64,0,0,0,30.85,23.27Z"/></svg>