<svg width="80" height="80" viewBox="0 0 80 80" fill="none" xmlns="http://www.w3.org/2000/svg">
<circle cx="40" cy="40" r="40" fill="#E64637"/>
<path d="M51.1392 37.7461V45.1971C51.1392 45.6814 51.1206 46.1471 51.0647 46.5941C50.6363 51.6235 47.6745 54.1196 42.2167 54.1196H41.4716C41.0059 54.1196 40.5588 54.3432 40.2794 54.7157L38.0441 57.6961C37.0569 59.0186 35.4549 59.0186 34.4677 57.6961L32.2324 54.7157C32.0833 54.5421 31.901 54.3999 31.6963 54.2976C31.4916 54.1952 31.2686 54.1347 31.0402 54.1196H30.2951C24.353 54.1196 21.3726 52.6481 21.3726 45.1971V37.7461C21.3726 32.2883 23.8873 29.3265 28.898 28.8981C29.3451 28.8422 29.8108 28.8235 30.2951 28.8235H42.2167C48.1588 28.8235 51.1392 31.8039 51.1392 37.7461Z" stroke="white" stroke-width="2.5" stroke-miterlimit="10" stroke-linecap="round" stroke-linejoin="round"/>
<path d="M58.5901 30.2951V37.7461C58.5901 43.2226 56.0754 46.1657 51.0646 46.5941C51.1205 46.1471 51.1391 45.6814 51.1391 45.1971V37.7461C51.1391 31.8039 48.1587 28.8235 42.2166 28.8235H30.295C29.8107 28.8235 29.345 28.8422 28.8979 28.898C29.3264 23.8873 32.2881 21.3726 37.746 21.3726H49.6676C55.6097 21.3726 58.5901 24.353 58.5901 30.2951V30.2951Z" stroke="white" stroke-width="2.5" stroke-miterlimit="10" stroke-linecap="round" stroke-linejoin="round"/>
<path d="M42.7848 42.3284H42.8034M36.2652 42.3284H36.2838M29.7456 42.3284H29.7642" stroke="white" stroke-width="3" stroke-linecap="round" stroke-linejoin="round"/>
</svg>
