<?xml version="1.0" encoding="utf-8"?>
<!-- Generator: Adobe Illustrator 25.0.0, SVG Export Plug-In . SVG Version: 6.00 Build 0)  -->
<svg version="1.0" id="圖層_1" xmlns="http://www.w3.org/2000/svg" xmlns:xlink="http://www.w3.org/1999/xlink" x="0px" y="0px"
	 viewBox="0 0 38 40" style="enable-background:new 0 0 38 40;" xml:space="preserve">
<style type="text/css">
	.st0{fill:#1E1E1E;stroke:#1E1E1E;stroke-miterlimit:10;}
</style>
<path class="st0" d="M32.9,23.3c2.1,0,3.8,1.7,3.8,3.8c0,2.1-1.7,3.8-3.8,3.8H5.1c-2.1,0-3.8-1.7-3.8-3.8c0-2.1,1.7-3.8,3.8-3.8
	c0.2,0,0.3-0.2,0.3-0.3v-8.3C5.5,7.1,11.5,1.1,19,1.1s13.5,6.1,13.5,13.5v8.3C32.5,23.1,32.7,23.3,32.9,23.3L32.9,23.3z M32.9,25.4
	c-1.3,0-2.4-1.1-2.4-2.4v-8.3c0-6.3-5.1-11.5-11.5-11.5S7.5,8.3,7.5,14.6v8.3c0,1.3-1.1,2.4-2.4,2.4c-1,0-1.7,0.8-1.7,1.7
	c0,1,0.8,1.7,1.7,1.7h27.8c1,0,1.7-0.8,1.7-1.7C34.6,26.2,33.8,25.4,32.9,25.4L32.9,25.4z M13.1,33h2.1c0,2.1,1.7,3.8,3.8,3.8
	s3.8-1.7,3.8-3.8h2.1c0,3.3-2.6,5.9-5.9,5.9S13.1,36.3,13.1,33z"/>
</svg>
