<?xml version="1.0" encoding="utf-8"?>
<!-- Generator: Adobe Illustrator 25.0.0, SVG Export Plug-In . SVG Version: 6.00 Build 0)  -->
<svg version="1.1" id="圖層_1" xmlns="http://www.w3.org/2000/svg" xmlns:xlink="http://www.w3.org/1999/xlink" x="0px" y="0px"
	 viewBox="0 0 31.8 40" style="enable-background:new 0 0 31.8 40;" xml:space="preserve">
<style type="text/css">
	.st0{fill:#1E1E1E;stroke:#1E1E1E;stroke-width:0.5;stroke-miterlimit:10;}
</style>
<g>
	<path class="st0" d="M15.9,18.6c-4.8,0-8.7-3.9-8.7-8.7s3.9-8.7,8.7-8.7s8.7,3.9,8.7,8.7l0,0C24.7,14.7,20.7,18.6,15.9,18.6z
		 M15.9,3.6c-3.4,0-6.2,2.8-6.2,6.2s2.8,6.2,6.2,6.2s6.2-2.8,6.2-6.2l0,0C22.1,6.4,19.3,3.6,15.9,3.6z"/>
	<path class="st0" d="M31.1,38.9h-2.6v-8.2c0-3.7-3-6.7-6.7-6.7H10c-3.7,0-6.7,3-6.7,6.7v8.2H0.8v-8.2c0-5.1,4.1-9.2,9.3-9.3h11.8
		c5.1,0,9.2,4.1,9.3,9.3V38.9z"/>
</g>
</svg>
