<svg width="60" height="60" viewBox="0 0 60 60" fill="none" xmlns="http://www.w3.org/2000/svg">
<path d="M15.7091 11.7534L10.8 6.84931L6.95455 10.7123L11.8364 15.6164L15.7091 11.7534ZM8.18182 27.2603H0V32.7397H8.18182V27.2603ZM32.7273 0H27.2727V8.08219H32.7273V0ZM53.0455 10.7123L49.2 6.84931L44.3182 11.7534L48.1636 15.6164L53.0455 10.7123ZM44.2909 48.2466L49.1727 53.1781L53.0182 49.3151L48.1091 44.411L44.2909 48.2466ZM51.8182 27.2603V32.7397H60V27.2603H51.8182ZM30 13.5616C20.9727 13.5616 13.6364 20.9315 13.6364 30C13.6364 39.0685 20.9727 46.4384 30 46.4384C39.0273 46.4384 46.3636 39.0685 46.3636 30C46.3636 20.9315 39.0273 13.5616 30 13.5616ZM27.2727 60H32.7273V51.9178H27.2727V60ZM6.95455 49.2877L10.8 53.1507L15.6818 48.2192L11.8364 44.3562L6.95455 49.2877Z" fill="#FAD26E"/>
</svg>
