<svg width="202" height="83" viewBox="0 0 202 83" fill="none" xmlns="http://www.w3.org/2000/svg">
<rect width="202" height="83" rx="41" transform="matrix(1 0 0 -1 0 83)" fill="#E64637"/>
<path d="M79.972 30.728V32.168H86.284V30.728H79.972ZM79.732 37.208V38.648H86.5V37.208H79.732ZM79.732 40.424V41.864H86.5V40.424H79.732ZM78.484 33.896V35.408H87.772V33.896H78.484ZM88.108 34.592V36.296H100.108V34.592H88.108ZM87.412 49.472V51.176H100.564V49.472H87.412ZM88.516 41.672V43.352H99.748V41.672H88.516ZM80.5 43.64V45.056H84.988V48.968H80.5V50.384H86.692V43.64H80.5ZM79.588 43.64V51.56H81.244V43.64H79.588ZM93.076 29.912V35.408H94.876V29.912H93.076ZM93.076 35.168V50.36H94.876V35.168H93.076ZM104.836 31.328V51.992H106.612V33.104H121.612V31.328H104.836ZM120.676 31.328V49.76C120.676 50.072 120.58 50.192 120.292 50.192C120.028 50.192 119.116 50.216 118.132 50.168C118.396 50.648 118.66 51.464 118.708 51.944C120.124 51.944 121.06 51.896 121.66 51.584C122.284 51.272 122.476 50.744 122.476 49.784V31.328H120.676ZM102.484 40.016V41.768H124.612V40.016H102.484ZM110.044 31.928V51.68H111.724V31.928H110.044ZM115.324 31.928V51.68H117.028V31.928H115.324Z" fill="white"/>
</svg>
