<svg width="202" height="83" viewBox="0 0 202 83" fill="none" xmlns="http://www.w3.org/2000/svg">
<rect width="202" height="83" rx="41" transform="matrix(1 0 0 -1 0 83)" fill="#E64637"/>
<path d="M85.06 36.536V38.096H93.964V36.536H85.06ZM79.084 49.856V51.368H99.988V49.856H79.084ZM80.524 30.776V32.288H87.628V30.776H80.524ZM87.052 30.776V31.112C85.564 34.928 81.676 38.288 78.148 39.776C78.508 40.088 78.988 40.712 79.228 41.096C83.044 39.32 87.052 35.888 88.852 31.28L87.7 30.68L87.364 30.776H87.052ZM91.108 29.912L89.596 30.416C91.636 34.976 95.308 38.888 99.556 40.808C99.844 40.328 100.348 39.68 100.78 39.32C96.628 37.712 92.956 33.992 91.108 29.912ZM79.876 34.16C81.124 34.928 82.564 36.128 83.284 36.968L84.292 35.864C83.596 35 82.108 33.896 80.836 33.176L79.876 34.16ZM95.932 30.056C94.972 31.112 93.268 32.576 92.044 33.464L93.148 34.328C94.396 33.488 96.052 32.192 97.3 31.016L95.932 30.056ZM98.62 32.888C97.612 33.968 95.836 35.432 94.54 36.296L95.644 37.16C96.964 36.344 98.692 35.048 99.964 33.848L98.62 32.888ZM84.628 41.552H94.348V44.72H84.628V41.552ZM82.852 40.064V46.208H96.196V40.064H82.852ZM84.244 46.592C84.892 47.648 85.492 49.112 85.732 50.048L87.436 49.52C87.196 48.584 86.572 47.168 85.9 46.136L84.244 46.592ZM93.172 46.064C92.788 47.12 92.02 48.68 91.42 49.616L92.956 50.072C93.556 49.136 94.276 47.816 94.924 46.544L93.172 46.064ZM106.972 31.304V33.128H113.764V31.304H106.972ZM112.852 31.304C112.852 35.816 113.644 46.04 123.244 51.848C123.58 51.416 124.3 50.648 124.708 50.336C115.228 44.72 114.7 35.6 114.7 31.304H112.852ZM112.18 36.008C110.716 42.8 107.716 47.648 102.388 50.432C102.868 50.768 103.684 51.512 104.02 51.896C109.324 48.776 112.492 43.712 114.22 36.392L112.18 36.008Z" fill="white"/>
</svg>
