<svg width="202" height="83" viewBox="0 0 202 83" fill="none" xmlns="http://www.w3.org/2000/svg">
<rect x="1" y="-1" width="200" height="81" rx="40" transform="matrix(1 0 0 -1 0 81)" stroke="#E64637" stroke-width="2"/>
<path d="M89.6972 33.152V34.904H98.5532V33.152H89.6972ZM78.5612 31.352V33.032H90.2972V31.352H78.5612ZM81.3692 36.224V37.88H87.6092V36.224H81.3692ZM81.3692 41.216V42.848H87.6092V41.216H81.3692ZM98.0252 33.152V33.584C96.9932 42.008 93.4172 47.648 88.6652 50.12C89.0732 50.456 89.5772 51.128 89.8652 51.584C95.0012 48.608 98.6732 42.968 99.8252 33.416L98.6732 33.104L98.3372 33.152H98.0252ZM91.8812 35L90.1532 35.336C91.6412 42.872 94.4012 48.728 99.6092 51.68C99.8972 51.2 100.473 50.528 100.881 50.168C95.9372 47.624 93.1532 41.936 91.8812 35ZM80.4332 32V47.576H82.1612V32H80.4332ZM86.8652 32V51.872H88.5932V32H86.8652ZM78.0812 47.048L78.4172 48.848C80.9132 48.464 84.3692 47.912 87.6572 47.384L87.5612 45.728C84.0572 46.256 80.4332 46.76 78.0812 47.048ZM111.681 40.952V42.536H121.953V40.952H111.681ZM111.633 45.128V46.688H121.953V45.128H111.633ZM122.121 30.512C121.545 31.928 120.441 33.872 119.601 35.096L121.113 35.744C121.977 34.544 123.009 32.792 123.873 31.208L122.121 30.512ZM109.857 31.328C110.865 32.744 111.897 34.616 112.281 35.864L113.889 35.072C113.481 33.848 112.401 32 111.369 30.656L109.857 31.328ZM110.529 36.704V51.92H112.305V38.384H122.049V36.704H110.529ZM121.161 36.704V49.664C121.161 49.976 121.041 50.096 120.657 50.12C120.297 50.12 119.025 50.12 117.633 50.072C117.873 50.576 118.137 51.32 118.233 51.8C120.057 51.8 121.257 51.8 121.977 51.512C122.697 51.2 122.913 50.672 122.913 49.664V36.704H121.161ZM115.905 29.84V37.76H117.705V29.84H115.905ZM103.473 31.352C104.961 32.144 106.761 33.392 107.601 34.28L108.705 32.888C107.817 32 106.017 30.848 104.529 30.104L103.473 31.352ZM102.345 37.76C103.857 38.552 105.681 39.776 106.593 40.64L107.673 39.224C106.737 38.36 104.865 37.208 103.377 36.488L102.345 37.76ZM103.089 50.528L104.649 51.68C105.921 49.4 107.409 46.376 108.513 43.808L107.169 42.728C105.921 45.488 104.265 48.656 103.089 50.528Z" fill="#E64637"/>
</svg>
