<svg width="87" height="62" viewBox="0 0 87 62" fill="none" xmlns="http://www.w3.org/2000/svg">
<rect x="0.75" y="-0.75" width="85.5" height="60.5" rx="30.25" transform="matrix(1 0 0 -1 0 60.5)" stroke="#E6E6E6" stroke-width="1.5"/>
<path d="M29.8599 29.14V30.52H42.4799V29.14H29.8599ZM30.4999 25.02V26.36H41.8799V25.02H30.4999ZM35.2199 25.64V28.62C35.2199 30.68 34.8599 33.62 29.9999 35.58C30.3399 35.84 30.7999 36.36 30.9999 36.68C36.0399 34.42 36.7199 31.14 36.7199 28.64V25.64H35.2199ZM37.1399 30.02L35.8399 30.3C36.7199 33.56 38.5399 35.72 41.5599 36.78C41.7599 36.38 42.1799 35.8 42.5199 35.5C39.6599 34.68 37.8999 32.82 37.1399 30.02ZM28.7199 29.1H24.4599V30.5H27.2599V36.18H28.7199V29.1ZM28.7199 35.52H27.3599C26.3399 36.38 25.1599 37.26 24.1999 37.9L24.9999 39.44C26.0799 38.56 27.0999 37.7 28.0599 36.84C29.3399 38.42 31.1399 39.12 33.7399 39.22C35.9599 39.3 40.0999 39.26 42.2999 39.18C42.3599 38.72 42.6199 38 42.7799 37.64C40.4199 37.8 35.9199 37.86 33.7399 37.78C31.4399 37.68 29.6599 37 28.7199 35.52ZM24.6799 22.6C25.9799 23.48 27.4799 24.84 28.1199 25.8L29.2999 24.82C28.6199 23.84 27.0999 22.54 25.7799 21.7L24.6799 22.6ZM39.2599 21.2C38.8399 22.22 38.0199 23.66 37.3999 24.56L38.6199 25.02C39.2799 24.18 40.0999 22.86 40.7799 21.72L39.2599 21.2ZM31.2799 21.8C32.0599 22.8 32.7999 24.18 33.0599 25.08L34.4199 24.48C34.1399 23.56 33.3599 22.24 32.5599 21.28L31.2799 21.8ZM46.4799 36.88V38.36H60.5999V36.88H46.4799ZM52.6199 21.32V37.72H54.1599V21.32H52.6199ZM45.7399 31.3V39.62H47.2599V31.3H45.7399ZM59.7999 31.3V39.56H61.3399V31.3H59.7999ZM46.5199 23.12V30.02H60.5399V23.12H58.9799V28.56H47.9999V23.12H46.5199Z" fill="#AAAAAA"/>
</svg>
