<svg width="40" height="12" viewBox="0 0 40 12" fill="none" xmlns="http://www.w3.org/2000/svg">
<path d="M7.66476 1.75507L8.54476 3.51507C8.66476 3.76007 8.98476 3.99507 9.25476 4.04007L10.8498 4.30507C11.8698 4.47507 12.1098 5.21507 11.3748 5.94507L10.1348 7.18507C9.92476 7.39507 9.80976 7.80007 9.87476 8.09007L10.2298 9.62507C10.5098 10.8401 9.86476 11.3101 8.78976 10.6751L7.29476 9.79007C7.02476 9.63007 6.57976 9.63007 6.30476 9.79007L4.80976 10.6751C3.73976 11.3101 3.08976 10.8351 3.36976 9.62507L3.72476 8.09007C3.78976 7.80007 3.67476 7.39507 3.46476 7.18507L2.22476 5.94507C1.49476 5.21507 1.72976 4.47507 2.74976 4.30507L4.34476 4.04007C4.60976 3.99507 4.92976 3.76007 5.04976 3.51507L5.92976 1.75507C6.40976 0.800068 7.18976 0.800068 7.66476 1.75507Z" fill="#FFD057"/>
<path d="M20.865 1.75507L21.745 3.51507C21.865 3.76007 22.185 3.99507 22.455 4.04007L24.05 4.30507C25.07 4.47507 25.31 5.21507 24.575 5.94507L23.335 7.18507C23.125 7.39507 23.01 7.80007 23.075 8.09007L23.43 9.62507C23.71 10.8401 23.065 11.3101 21.99 10.6751L20.495 9.79007C20.225 9.63007 19.78 9.63007 19.505 9.79007L18.01 10.6751C16.94 11.3101 16.29 10.8351 16.57 9.62507L16.925 8.09007C16.99 7.80007 16.875 7.39507 16.665 7.18507L15.425 5.94507C14.695 5.21507 14.93 4.47507 15.95 4.30507L17.545 4.04007C17.81 3.99507 18.13 3.76007 18.25 3.51507L19.13 1.75507C19.61 0.800068 20.39 0.800068 20.865 1.75507Z" fill="#FFD057"/>
<path d="M34.0647 1.75507L34.9447 3.51507C35.0647 3.76007 35.3847 3.99507 35.6547 4.04007L37.2497 4.30507C38.2697 4.47507 38.5097 5.21507 37.7747 5.94507L36.5347 7.18507C36.3247 7.39507 36.2097 7.80007 36.2747 8.09007L36.6297 9.62507C36.9097 10.8401 36.2647 11.3101 35.1897 10.6751L33.6947 9.79007C33.4247 9.63007 32.9797 9.63007 32.7047 9.79007L31.2097 10.6751C30.1397 11.3101 29.4897 10.8351 29.7697 9.62507L30.1247 8.09007C30.1897 7.80007 30.0747 7.39507 29.8647 7.18507L28.6247 5.94507C27.8947 5.21507 28.1297 4.47507 29.1497 4.30507L30.7447 4.04007C31.0097 3.99507 31.3297 3.76007 31.4497 3.51507L32.3297 1.75507C32.8097 0.800068 33.5897 0.800068 34.0647 1.75507Z" fill="#FFD057"/>
</svg>
