<svg width="90" height="76" viewBox="0 0 90 76" fill="none" xmlns="http://www.w3.org/2000/svg">
<path d="M14.4 57.3798V58.8798H22.62V57.3798H14.4ZM6.02 66.8598V68.3598H23.98V66.8598H6.02ZM13.54 51.1998V67.6598H15.12V51.1998H13.54ZM33.56 57.8598H41.76V59.1198H33.56V57.8598ZM33.56 55.6998H41.76V56.9398H33.56V55.6998ZM32.18 54.7598V60.0798H43.2V54.7598H32.18ZM31.2 61.3798L31.34 62.5998C34.28 62.5398 38.54 62.3998 42.6 62.2798L42.64 61.1998C38.46 61.2998 34.04 61.3798 31.2 61.3798ZM40.12 60.2798C41.26 61.1198 42.6 62.3398 43.24 63.1398L44.32 62.4598C43.66 61.6598 42.28 60.4798 41.14 59.6798L40.12 60.2798ZM36.88 51.0598V61.9398L38.34 61.8198V51.0598H36.88ZM30.8 63.6598V64.8798H44.2V63.6598H30.8ZM39.92 61.9398V67.6998C39.92 67.9598 39.84 68.0398 39.54 68.0398C39.2 68.0798 38.18 68.0798 36.96 68.0398C37.14 68.4198 37.34 68.9398 37.42 69.3198C38.96 69.3198 39.96 69.3398 40.58 69.1198C41.2 68.9198 41.38 68.5398 41.38 67.7198V61.9398H39.92ZM32.94 65.5798C33.88 66.3798 34.96 67.5398 35.44 68.2998L36.62 67.4798C36.08 66.7398 34.98 65.6398 34.04 64.8798L32.94 65.5798ZM31.36 52.4598V53.6198H44V52.4598H31.36ZM30.28 50.9798C29.16 54.0198 27.28 57.0198 25.3 58.9598C25.58 59.2998 26 60.0998 26.16 60.4398C28.32 58.1998 30.38 54.8198 31.7 51.4198L30.28 50.9798ZM28.2 56.1398V69.2798H29.64V54.7398L29.6 54.7198L28.2 56.1398ZM46.84 51.7798V64.2398H48.26V51.7798H46.84ZM47.6 51.7798V53.1198H51.28V61.8598H47.6V63.2398H52.68V51.7798H47.6ZM47.58 56.6198V57.9598H52V56.6198H47.58ZM53.54 51.7398V53.0798H62.5V51.7398H53.54ZM62.02 51.7398V51.9398C61.88 54.6798 61.72 55.6998 61.42 55.9998C61.28 56.1398 61.1 56.1798 60.8 56.1798C60.48 56.1798 59.66 56.1598 58.8 56.0798C59 56.4398 59.14 56.9598 59.18 57.3398C60.1 57.3798 60.98 57.3798 61.44 57.3398C61.96 57.2998 62.32 57.1998 62.62 56.8798C63.06 56.4198 63.24 55.2198 63.44 52.3198C63.46 52.1198 63.46 51.7398 63.46 51.7398H62.02ZM57.02 52.1598C56.76 54.5198 55.96 56.0798 52.9 56.9198C53.22 57.1798 53.6 57.6998 53.74 58.0398C57.18 56.9998 58.16 55.0798 58.52 52.1598H57.02ZM55.56 59.5798H61.4V62.6198H55.56V59.5798ZM54.14 58.3198V63.8798H62.88V58.3198H54.14ZM51.8 65.2198C52.04 66.5198 52.2 68.2198 52.2 69.2398L53.68 69.0198C53.66 68.0198 53.44 66.3598 53.18 65.0598L51.8 65.2198ZM56.08 65.1598C56.6 66.4398 57.1 68.1598 57.28 69.1798L58.76 68.8598C58.56 67.8198 58.02 66.1398 57.48 64.8998L56.08 65.1598ZM60.16 65.0398C61.1 66.3798 62.22 68.2198 62.68 69.3398L64.12 68.6998C63.62 67.5798 62.46 65.7998 61.5 64.4998L60.16 65.0398ZM48.48 64.6398C47.8 66.0998 46.76 67.7598 45.84 68.7798L47.28 69.3998C48.2 68.2598 49.2 66.5398 49.9 65.0398L48.48 64.6398ZM69.38 56.0798V57.6398H83.06V56.0798H69.38ZM75.84 50.9398V56.7998H77.42V50.9398H75.84ZM68.58 51.4198V58.0998C68.58 61.6398 68.3 65.3398 65.76 68.1798C66.12 68.4398 66.68 68.9998 66.92 69.3398C69.8 66.1998 70.14 62.0798 70.14 58.0998V51.4198H68.58ZM69.32 60.8198V62.3798H78.34V69.3198H79.96V60.8198H69.32Z" fill="#AAAAAA"/>
<g clip-path="url(#clip0_871_2642)">
<path d="M51.4222 32.6532C51.4222 34.8724 51.4222 37.007 51.4222 39.131C51.4222 40.2723 51.0946 40.5894 49.9322 40.5894C46.7937 40.5894 43.6657 40.5894 40.5272 40.5894C39.5127 40.5894 39.1534 40.2301 39.1534 39.2262C39.1534 37.25 39.1534 35.2845 39.1534 33.3084C39.1534 33.1182 39.1534 32.928 39.1534 32.6532C38.5828 32.6532 38.065 32.6532 37.5366 32.6532C34.9793 32.6532 32.4326 32.6638 29.8752 32.6638C25.5426 32.6638 21.6115 29.5675 20.5865 25.3511C19.3712 20.3105 22.0976 15.3544 27.0432 13.7164C27.4236 13.5896 27.561 13.41 27.6138 13.0295C28.3218 8.32704 32.2529 5.22022 36.966 5.65349C37.7797 5.72746 38.5722 5.98108 39.4387 6.17129C40.0834 4.94547 40.9076 3.79362 42.0172 2.86369C45.3988 0.0104907 49.2347 -0.76093 53.3666 0.792479C57.4985 2.34589 59.8444 5.47384 60.4996 9.84875C60.5524 10.1975 60.6264 10.356 61.0174 10.3983C65.9735 10.8949 70.0842 14.7943 70.8451 19.6764C71.6271 24.7805 69.0381 29.4936 64.3144 31.5753C62.6659 32.3045 60.9329 32.6532 59.1364 32.6532C56.7904 32.6532 54.455 32.6638 52.1091 32.6744C51.8977 32.6638 51.6969 32.6532 51.4222 32.6532ZM39.1217 27.4012C38.4137 27.4012 37.7585 27.3907 37.0928 27.4012C36.5644 27.4118 36.1523 27.2321 35.9515 26.7249C35.7613 26.2282 35.9304 25.8161 36.3108 25.4463C39.1217 22.6565 41.9115 19.8455 44.7225 17.0452C45.4093 16.3583 45.9377 16.3688 46.614 17.0557C48.1886 18.6197 49.7525 20.1837 51.3271 21.7582C52.5635 22.9946 53.7893 24.2204 55.0151 25.4568C55.5646 26.0169 55.6069 26.7143 55.0785 27.1159C54.8355 27.2955 54.4656 27.3801 54.1591 27.4012C53.2715 27.4329 52.3733 27.4118 51.4645 27.4118C51.4645 28.4791 51.4645 29.483 51.4645 30.4975C51.6018 30.508 51.7181 30.5397 51.8449 30.5397C54.3494 30.5292 56.8433 30.5714 59.3478 30.4975C60.3517 30.4658 61.3978 30.3284 62.3595 30.0219C66.0686 28.8067 68.4357 26.3128 68.8162 22.3606C69.186 18.6091 67.5903 15.6925 64.3884 13.6953C62.9618 12.8076 61.3767 12.4589 59.6965 12.4589C58.8722 12.4589 58.5235 12.0996 58.5024 11.2648C58.4918 10.9795 58.4707 10.7047 58.4495 10.4194C58.0797 6.28753 54.92 2.90596 50.8621 2.28248C46.7303 1.64844 42.7252 3.8993 41.119 7.74584C40.6434 8.87655 40.2102 9.04563 39.1429 8.48556C35.0427 6.34037 30.1077 9.04563 29.7167 13.6636C29.5794 15.2381 29.5794 15.2381 28.0893 15.6397C24.4436 16.6225 22.0448 20.1942 22.5309 23.9245C23.017 27.7394 26.2401 30.582 30.0655 30.5714C32.9187 30.5714 35.7719 30.5609 38.6251 30.5609C38.7941 30.5609 38.9632 30.5397 39.1746 30.5292C39.1217 29.4936 39.1217 28.5002 39.1217 27.4012ZM49.2981 38.4336C49.2981 38.1694 49.2981 37.9581 49.2981 37.7573C49.2981 33.9953 49.2981 30.2227 49.2981 26.4607C49.2981 25.6787 49.6786 25.2877 50.4606 25.2772C50.8516 25.2666 51.2425 25.2772 51.6758 25.2772C49.6152 23.2271 47.6179 21.2299 45.7264 19.3594C43.7608 21.3038 41.753 23.3011 39.7769 25.256C41.1612 25.3828 41.2775 25.5097 41.2775 27.0314C41.2775 30.6243 41.2775 34.2172 41.2775 37.7996C41.2775 38.0003 41.2775 38.2011 41.2775 38.4336C43.9827 38.4336 46.5929 38.4336 49.2981 38.4336Z" fill="#AAAAAA"/>
</g>
<defs>
<clipPath id="clip0_871_2642">
<rect width="50.6813" height="40.6" fill="white" transform="translate(20.3008 -0.00012207)"/>
</clipPath>
</defs>
</svg>
