<svg width="58" height="70" viewBox="0 0 58 70" fill="none" xmlns="http://www.w3.org/2000/svg">
<g clip-path="url(#clip0_9_129)">
<path d="M30.3833 70H27.4196C19.8994 70 13.7905 63.871 13.7905 56.371V47.1976C13.7905 46.5726 14.2946 46.0685 14.9196 46.0685H42.9034C43.5284 46.0685 44.0325 46.5726 44.0325 47.1976V56.371C44.0325 63.8911 37.9236 70 30.3833 70ZM16.0284 48.3266V56.371C16.0284 62.6411 21.1494 67.7419 27.4196 67.7419H30.3833C36.6534 67.7419 41.7542 62.6411 41.7542 56.371V48.3266H16.0284Z" fill="black"/>
<path d="M42.9034 48.3266H14.8994C14.3953 48.3266 13.9719 48.004 13.8107 47.5201L0.0404959 1.47177C-0.0804719 1.06854 0.0404959 0.624993 0.342915 0.322574C0.645335 0.0201543 1.10904 -0.0806521 1.49211 0.0806382L12.0969 3.70967L19.5969 0.120961C19.8994 -0.0201682 20.2219 -0.0201682 20.5244 0.1008L28.9115 3.70967L37.722 0.1008C38.0244 -0.0201682 38.347 -0.0201682 38.6292 0.120961L46.2703 3.70967L56.2905 0.0806382C56.6937 -0.0604908 57.1373 0.0201543 57.4598 0.322574C57.7824 0.624993 57.8832 1.04838 57.7623 1.47177L43.9921 47.5403C43.851 48.004 43.4074 48.3266 42.9034 48.3266ZM15.7461 46.0685H42.0566L54.9599 2.9637L46.6131 5.9879C46.3308 6.0887 46.0082 6.06854 45.7461 5.94757L38.105 2.35886L29.3147 5.96773C29.0324 6.0887 28.7099 6.0887 28.4478 5.94757L20.101 2.35886L12.6615 5.92741C12.3994 6.04838 12.0768 6.06854 11.7945 5.96773L2.84292 2.90322L15.7461 46.0685Z" fill="black"/>
<path d="M28.9113 48.3266C28.2863 48.3266 27.7822 47.8226 27.7822 47.1976V4.91935C27.7822 4.29435 28.2863 3.79031 28.9113 3.79031C29.5363 3.79031 30.0403 4.29435 30.0403 4.91935V47.1976C30.0403 47.8226 29.5363 48.3266 28.9113 48.3266Z" fill="black"/>
<path d="M20.2016 48.3266C19.6774 48.3266 19.1935 47.9637 19.0927 47.4193L10.7661 5.14112C10.6451 4.53628 11.0483 3.93145 11.6532 3.81048C12.2782 3.68951 12.8629 4.09274 12.9838 4.69757L21.3104 46.9758C21.4314 47.5806 21.0282 48.1855 20.4233 48.3064C20.3427 48.3266 20.2621 48.3266 20.2016 48.3266Z" fill="black"/>
<path d="M36.976 48.3266C36.8953 48.3266 36.8147 48.3064 36.734 48.3064C36.1292 48.1855 35.726 47.5806 35.8671 46.9556L44.8187 4.67742C44.9397 4.07258 45.5445 3.68951 46.1695 3.81048C46.7744 3.93145 47.1776 4.53629 47.0365 5.16129L38.0848 47.4395C37.9639 47.9637 37.5002 48.3266 36.976 48.3266Z" fill="black"/>
</g>
<defs>
<clipPath id="clip0_9_129">
<rect width="57.8024" height="70" fill="white"/>
</clipPath>
</defs>
</svg>
