<svg width="151" height="36" viewBox="0 0 151 36" fill="none" xmlns="http://www.w3.org/2000/svg">
<path d="M18.008 8.72C17.552 7.88 16.892 7.244 16.028 6.812C15.188 6.356 14.192 6.128 13.04 6.128C11.048 6.128 9.452 6.788 8.252 8.108C7.052 9.404 6.452 11.144 6.452 13.328C6.452 15.656 7.076 17.48 8.324 18.8C9.596 20.096 11.336 20.744 13.544 20.744C15.056 20.744 16.328 20.36 17.36 19.592C18.416 18.824 19.184 17.72 19.664 16.28H11.852V11.744H25.244V17.468C24.788 19.004 24.008 20.432 22.904 21.752C21.824 23.072 20.444 24.14 18.764 24.956C17.084 25.772 15.188 26.18 13.076 26.18C10.58 26.18 8.348 25.64 6.38 24.56C4.436 23.456 2.912 21.932 1.808 19.988C0.728 18.044 0.188 15.824 0.188 13.328C0.188 10.832 0.728 8.612 1.808 6.668C2.912 4.7 4.436 3.176 6.38 2.096C8.324 0.991999 10.544 0.439999 13.04 0.439999C16.064 0.439999 18.608 1.172 20.672 2.636C22.76 4.1 24.14 6.128 24.812 8.72H18.008ZM40.6059 26.252C38.2299 26.252 36.0459 25.7 34.0539 24.596C32.0859 23.492 30.5139 21.956 29.3379 19.988C28.1859 17.996 27.6099 15.764 27.6099 13.292C27.6099 10.82 28.1859 8.6 29.3379 6.632C30.5139 4.664 32.0859 3.128 34.0539 2.024C36.0459 0.92 38.2299 0.368 40.6059 0.368C42.9819 0.368 45.1539 0.92 47.1219 2.024C49.1139 3.128 50.6739 4.664 51.8019 6.632C52.9539 8.6 53.5299 10.82 53.5299 13.292C53.5299 15.764 52.9539 17.996 51.8019 19.988C50.6499 21.956 49.0899 23.492 47.1219 24.596C45.1539 25.7 42.9819 26.252 40.6059 26.252ZM40.6059 20.636C42.6219 20.636 44.2299 19.964 45.4299 18.62C46.6539 17.276 47.2659 15.5 47.2659 13.292C47.2659 11.06 46.6539 9.284 45.4299 7.964C44.2299 6.62 42.6219 5.948 40.6059 5.948C38.5659 5.948 36.9339 6.608 35.7099 7.928C34.5099 9.248 33.9099 11.036 33.9099 13.292C33.9099 15.524 34.5099 17.312 35.7099 18.656C36.9339 19.976 38.5659 20.636 40.6059 20.636ZM65.1267 26.288C63.3747 26.288 61.8147 25.988 60.4467 25.388C59.0787 24.788 57.9987 23.972 57.2067 22.94C56.4147 21.884 55.9707 20.708 55.8747 19.412H61.9587C62.0307 20.108 62.3547 20.672 62.9307 21.104C63.5067 21.536 64.2147 21.752 65.0547 21.752C65.8227 21.752 66.4107 21.608 66.8187 21.32C67.2507 21.008 67.4667 20.612 67.4667 20.132C67.4667 19.556 67.1667 19.136 66.5667 18.872C65.9667 18.584 64.9947 18.272 63.6507 17.936C62.2107 17.6 61.0107 17.252 60.0507 16.892C59.0907 16.508 58.2627 15.92 57.5667 15.128C56.8707 14.312 56.5227 13.22 56.5227 11.852C56.5227 10.7 56.8347 9.656 57.4587 8.72C58.1067 7.76 59.0427 7.004 60.2667 6.452C61.5147 5.9 62.9907 5.624 64.6947 5.624C67.2147 5.624 69.1947 6.248 70.6347 7.496C72.0987 8.744 72.9387 10.4 73.1547 12.464H67.4667C67.3707 11.768 67.0587 11.216 66.5307 10.808C66.0267 10.4 65.3547 10.196 64.5147 10.196C63.7947 10.196 63.2427 10.34 62.8587 10.628C62.4747 10.892 62.2827 11.264 62.2827 11.744C62.2827 12.32 62.5827 12.752 63.1827 13.04C63.8067 13.328 64.7667 13.616 66.0627 13.904C67.5507 14.288 68.7627 14.672 69.6987 15.056C70.6347 15.416 71.4507 16.016 72.1467 16.856C72.8667 17.672 73.2387 18.776 73.2627 20.168C73.2627 21.344 72.9267 22.4 72.2547 23.336C71.6067 24.248 70.6587 24.968 69.4107 25.496C68.1867 26.024 66.7587 26.288 65.1267 26.288ZM83.1849 8.756C83.7849 7.82 84.6129 7.064 85.6689 6.488C86.7249 5.912 87.9609 5.624 89.3769 5.624C91.0329 5.624 92.5329 6.044 93.8769 6.884C95.2209 7.724 96.2769 8.924 97.0449 10.484C97.8369 12.044 98.2329 13.856 98.2329 15.92C98.2329 17.984 97.8369 19.808 97.0449 21.392C96.2769 22.952 95.2209 24.164 93.8769 25.028C92.5329 25.868 91.0329 26.288 89.3769 26.288C87.9849 26.288 86.7489 26 85.6689 25.424C84.6129 24.848 83.7849 24.104 83.1849 23.192V35.576H77.0289V5.912H83.1849V8.756ZM91.9689 15.92C91.9689 14.384 91.5369 13.184 90.6729 12.32C89.8329 11.432 88.7889 10.988 87.5409 10.988C86.3169 10.988 85.2729 11.432 84.4089 12.32C83.5689 13.208 83.1489 14.42 83.1489 15.956C83.1489 17.492 83.5689 18.704 84.4089 19.592C85.2729 20.48 86.3169 20.924 87.5409 20.924C88.7649 20.924 89.8089 20.48 90.6729 19.592C91.5369 18.68 91.9689 17.456 91.9689 15.92ZM110.606 26.288C108.638 26.288 106.862 25.868 105.278 25.028C103.718 24.188 102.482 22.988 101.57 21.428C100.682 19.868 100.238 18.044 100.238 15.956C100.238 13.892 100.694 12.08 101.606 10.52C102.518 8.936 103.766 7.724 105.35 6.884C106.934 6.044 108.71 5.624 110.678 5.624C112.646 5.624 114.422 6.044 116.006 6.884C117.59 7.724 118.838 8.936 119.75 10.52C120.662 12.08 121.118 13.892 121.118 15.956C121.118 18.02 120.65 19.844 119.714 21.428C118.802 22.988 117.542 24.188 115.934 25.028C114.35 25.868 112.574 26.288 110.606 26.288ZM110.606 20.96C111.782 20.96 112.778 20.528 113.594 19.664C114.434 18.8 114.854 17.564 114.854 15.956C114.854 14.348 114.446 13.112 113.63 12.248C112.838 11.384 111.854 10.952 110.678 10.952C109.478 10.952 108.482 11.384 107.69 12.248C106.898 13.088 106.502 14.324 106.502 15.956C106.502 17.564 106.886 18.8 107.654 19.664C108.446 20.528 109.43 20.96 110.606 20.96ZM130.54 9.26C131.26 8.156 132.16 7.292 133.24 6.668C134.32 6.02 135.52 5.696 136.84 5.696V12.212H135.148C133.612 12.212 132.46 12.548 131.692 13.22C130.924 13.868 130.54 15.02 130.54 16.676V26H124.384V5.912H130.54V9.26ZM150.979 20.78V26H147.847C145.615 26 143.875 25.46 142.627 24.38C141.379 23.276 140.755 21.488 140.755 19.016V11.024H138.307V5.912H140.755V1.016H146.911V5.912H150.943V11.024H146.911V19.088C146.911 19.688 147.055 20.12 147.343 20.384C147.631 20.648 148.111 20.78 148.783 20.78H150.979Z" fill="black"/>
</svg>
