<svg width="70" height="70" viewBox="0 0 70 70" fill="none" xmlns="http://www.w3.org/2000/svg">
<g clip-path="url(#clip0_76_1214)">
<path d="M56.875 70C49.6375 70 43.75 64.124 43.75 56.8977C43.75 49.6714 49.6375 43.7828 56.875 43.7828C64.1125 43.7828 70 49.6589 70 56.8977C70 64.1115 64.1125 70 56.875 70ZM56.875 46.6958C51.25 46.6958 46.6625 51.2717 46.6625 56.8852C46.6625 62.4987 51.2375 67.0745 56.875 67.0745C62.5125 67.0745 67.0875 62.4987 67.0875 56.8852C67.0875 51.2717 62.5 46.6958 56.875 46.6958Z" fill="black"/>
<path d="M12.3247 25.9171L14.3872 23.8543L45.0872 54.5097L43.0247 56.5726L12.3247 25.9171Z" fill="black"/>
<path d="M10.7123 70C9.4623 70 8.2998 69.5124 7.4123 68.6373L1.3498 62.5862C0.474805 61.711 -0.0126953 60.5358 -0.0126953 59.2981C-0.0126953 58.0479 0.474805 56.8852 1.3498 55.9975L13.2873 43.8953C14.1123 43.0577 14.3623 41.8575 13.9248 40.8323C10.8873 33.656 10.8998 25.442 13.9748 18.3033C17.1498 10.9019 23.3623 5.15092 31.4623 2.11288C39.3998 -0.875156 47.9623 -0.687622 54.9498 2.63797C62.2373 6.10109 67.2873 12.3522 69.1748 20.2411C71.3373 29.2802 69.0623 39.5571 63.2623 47.0709L62.3873 47.9336L60.3748 45.8207L61.1123 45.1206C66.2498 38.4569 68.3123 29.1177 66.3498 20.9162C64.6748 13.9025 60.1873 8.33899 53.7123 5.26344C47.4248 2.28791 39.6998 2.12538 32.4998 4.83837C25.1498 7.60136 19.5123 12.7898 16.6623 19.4535C13.8998 25.8796 13.8873 33.2559 16.6248 39.6946C17.5248 41.8075 17.0373 44.2704 15.3873 45.9457L3.4498 58.0604C3.1123 58.3979 2.9373 58.8355 2.9373 59.2981C2.9373 59.7607 3.1123 60.1982 3.4498 60.5233L9.5123 66.5744C10.1748 67.237 11.3248 67.237 11.9748 66.5744L24.1123 54.6473C25.7873 53.0095 28.2498 52.5219 30.3748 53.4095C34.8623 55.2974 39.7748 55.885 44.5998 55.1098L45.0623 57.9854C39.6998 58.8605 34.2248 58.2104 29.2373 56.0975C28.1998 55.6599 26.9873 55.91 26.1623 56.7351L13.9998 68.6498C13.1248 69.5124 11.9623 70 10.7123 70Z" fill="black"/>
</g>
<defs>
<clipPath id="clip0_76_1214">
<rect width="70" height="70" fill="white"/>
</clipPath>
</defs>
</svg>
