<svg width="73" height="22" viewBox="0 0 73 22" fill="none" xmlns="http://www.w3.org/2000/svg">
<path d="M28.024 5.128V6.168H38.28V5.128H28.024ZM32.488 3.624V5.608H33.688V3.624H32.488ZM30.408 7.912H35.832V9.4H30.408V7.912ZM29.256 7.048V10.264H37.048V7.048H29.256ZM27.752 11.192V13.96H28.84V12.152H37.32V13.928H38.424V11.192H27.752ZM29.576 13.24V14.232H36.728V13.24H29.576ZM32.488 13.464V16.968C32.488 17.16 32.424 17.224 32.168 17.224C31.928 17.24 31.064 17.24 30.136 17.208C30.28 17.544 30.456 17.976 30.504 18.312C31.704 18.312 32.52 18.312 33.032 18.136C33.544 17.96 33.672 17.656 33.672 17V13.464H32.488ZM27.224 3.624C26.328 6.056 24.824 8.456 23.24 10.008C23.464 10.28 23.8 10.92 23.928 11.192C25.656 9.4 27.304 6.696 28.36 3.976L27.224 3.624ZM25.56 7.752V18.264H26.712V6.632L26.68 6.616L25.56 7.752ZM40.328 5.032V6.136H53.672V5.032H40.328ZM39.832 14.856V15.96H54.216V14.856H39.832ZM46.344 3.576V18.328H47.576V3.576H46.344ZM42.664 10.888H51.32V12.552H42.664V10.888ZM42.664 8.312H51.32V9.944H42.664V8.312ZM41.512 7.304V13.544H52.52V7.304H41.512ZM60.28 10.136V11.192H70.36V10.136H60.28ZM62.088 12.312V13.288H69.064V12.312H62.088ZM62.872 10.536C62.136 12.12 60.808 13.512 59.336 14.392C59.576 14.568 59.992 14.936 60.152 15.144C61.64 14.152 63.096 12.584 63.912 10.808L62.872 10.536ZM68.84 12.312V12.488C68.616 15.624 68.36 16.824 68.056 17.128C67.928 17.288 67.8 17.304 67.56 17.304C67.336 17.304 66.808 17.288 66.2 17.24C66.36 17.496 66.472 17.928 66.472 18.232C67.112 18.264 67.72 18.248 68.072 18.232C68.456 18.2 68.744 18.104 69 17.832C69.432 17.368 69.688 16.104 69.928 12.792C69.96 12.616 69.976 12.312 69.976 12.312H68.84ZM62.952 7.064H68.104V8.344H62.952V7.064ZM62.952 4.936H68.104V6.2H62.952V4.936ZM61.864 4.04V9.24H69.224V4.04H61.864ZM55.832 7.032V8.184H60.584V7.032H55.832ZM57.704 3.688V13.528H58.84V3.688H57.704ZM55.528 14.168L55.992 15.368C57.352 14.712 59.096 13.848 60.728 13.016L60.472 11.96C58.648 12.808 56.76 13.656 55.528 14.168ZM66.792 12.488C66.216 14.472 64.872 16.648 63.368 17.656C63.672 17.832 64.04 18.104 64.248 18.344C65.704 17.24 67.032 14.968 67.64 12.936L66.792 12.488ZM64.296 12.536C63.512 14.216 61.832 16.056 60.248 16.92C60.536 17.096 60.872 17.4 61.064 17.656C62.616 16.664 64.296 14.76 65.112 13.016L64.296 12.536Z" fill="#383838"/>
<path d="M9.89543 6.95652C11.1291 6.95652 12.0278 7.20765 12.5918 7.70991C13.1557 8.20336 13.4377 8.89507 13.4377 9.78504C13.4377 10.3137 13.3187 10.8072 13.0808 11.2654C12.8517 11.7236 12.464 12.0981 11.9177 12.3889C11.3714 12.6708 10.6312 12.8118 9.69717 12.8118H8.67943V16.3937H7.25195V6.95652H9.89543ZM9.78969 8.1593H8.67943V11.609H9.53856C10.3404 11.609 10.944 11.4769 11.3493 11.2125C11.7635 10.9394 11.9706 10.4812 11.9706 9.83791C11.9706 9.27397 11.7943 8.85542 11.4419 8.58226C11.0894 8.30029 10.5387 8.1593 9.78969 8.1593Z" fill="#383838"/>
<circle cx="9.5" cy="11.5" r="8.75" stroke="#383838" stroke-width="1.5"/>
</svg>
