<svg width="72" height="22" viewBox="0 0 72 22" fill="none" xmlns="http://www.w3.org/2000/svg">
<path d="M26.16 7.064V8.232H31.296V7.064H26.16ZM28.432 3.56V18.264H29.552V3.56H28.432ZM28.416 7.608C27.84 10.44 26.688 13.496 25.36 14.968C25.616 15.176 26 15.56 26.176 15.832C27.504 14.136 28.576 10.888 29.152 7.784L28.416 7.608ZM34.768 7.752L34.128 7.928C34.592 10.792 35.504 14.088 36.64 15.608C36.848 15.32 37.248 14.92 37.504 14.728C36.32 13.384 35.28 10.36 34.768 7.752ZM29.312 8.696L28.784 9.288C29.296 9.864 30.608 11.56 31.04 12.312L31.696 11.208C31.344 10.792 29.744 9.08 29.312 8.696ZM31.6 7.064V8.232H37.152V7.064H31.6ZM33.568 3.56V18.264H34.72V3.56H33.568ZM33.552 7.528C32.944 10.408 31.712 13.48 30.256 14.936C30.528 15.128 30.864 15.528 31.072 15.784C32.544 14.104 33.712 10.872 34.336 7.704L33.552 7.528ZM23.408 4.552C24.176 5.24 25.088 6.216 25.488 6.856L26.336 6.12C25.904 5.496 24.992 4.568 24.224 3.928L23.408 4.552ZM22.624 8.904C23.424 9.512 24.368 10.408 24.816 11L25.632 10.232C25.152 9.672 24.176 8.824 23.392 8.232L22.624 8.904ZM22.928 17.464L23.968 18.008C24.512 16.536 25.136 14.568 25.568 12.904L24.624 12.344C24.144 14.136 23.44 16.2 22.928 17.464ZM44.256 12.232V18.28H45.408V13.32H50.624V18.184H51.824V12.232H44.256ZM44.8 16.536V17.608H51.28V16.536H44.8ZM45.664 3.688C44.944 5.048 43.76 6.44 42.56 7.352C42.864 7.528 43.36 7.896 43.584 8.088C44.72 7.096 46 5.56 46.832 4.04L45.664 3.688ZM48.944 4.2C50.128 5.304 51.488 6.84 52.096 7.832L53.088 7.144C52.464 6.136 51.072 4.664 49.872 3.608L48.944 4.2ZM47.952 8.008C49.024 9.784 50.992 11.736 52.832 12.888C53.008 12.536 53.296 12.088 53.552 11.8C51.696 10.792 49.696 8.824 48.48 6.792H47.296C46.384 8.648 44.464 10.792 42.448 11.992C42.688 12.264 42.992 12.696 43.12 13.016C45.12 11.752 46.976 9.736 47.952 8.008ZM39.024 17.304L40.064 18.056C40.864 16.648 41.776 14.872 42.48 13.304L41.568 12.552C40.784 14.248 39.744 16.168 39.024 17.304ZM39.44 4.568C40.464 5.048 41.696 5.816 42.304 6.392L42.992 5.416C42.384 4.856 41.12 4.136 40.112 3.704L39.44 4.568ZM38.592 8.92C39.632 9.352 40.896 10.072 41.52 10.616L42.208 9.624C41.568 9.096 40.272 8.408 39.248 8.024L38.592 8.92ZM59.552 13.368V14.296H64.4V13.368H59.552ZM59.504 10.952V11.896H63.824V15.864H59.504V16.792H64.96V10.952H59.504ZM58.976 10.952V17.608H60.08V10.952H58.976ZM56.032 6.52V7.4H60.48V6.52H56.032ZM63.408 6.52V7.4H67.936V6.52H63.408ZM67.44 4.248V16.696C67.44 16.968 67.344 17.064 67.056 17.064C66.768 17.08 65.792 17.096 64.816 17.048C64.992 17.384 65.184 17.944 65.232 18.28C66.576 18.28 67.44 18.264 67.952 18.072C68.464 17.864 68.64 17.464 68.64 16.696V4.248H67.44ZM56.128 4.248V5.176H60.112V8.824H56.128V9.752H61.248V4.248H56.128ZM68.032 4.248H62.688V9.768H68.032V8.856H63.84V5.176H68.032V4.248ZM55.44 4.248V18.296H56.624V4.248H55.44Z" fill="#383838"/>
<g clip-path="url(#clip0_796_63)">
<path d="M16.0809 19.6523C15.938 19.5701 15.7821 19.5008 15.6608 19.3968C15.4702 19.2323 15.4313 18.9941 15.4313 18.7515C15.4313 18.0369 15.4313 17.3224 15.4313 16.6078C15.4313 13.3553 15.4269 10.1072 15.4356 6.85477C15.4356 5.96695 15.1671 5.19606 14.5651 4.53778C13.3611 3.2342 11.1784 3.23853 9.97876 4.55077C9.96143 4.57242 9.94411 4.59408 9.91812 4.62872C10.4508 4.84527 10.9315 5.12244 11.3516 5.49922C12.43 6.46066 12.9843 7.6603 13.0103 9.10679C13.019 9.59185 12.6769 9.93831 12.1918 9.94264C9.52402 9.94697 6.8519 9.94697 4.18412 9.94264C3.67741 9.93398 3.33527 9.56153 3.35693 9.05482C3.42189 7.4351 4.10183 6.14018 5.41407 5.19173C6.13299 4.67203 6.94718 4.37754 7.83933 4.33423C8.06886 4.32124 8.19879 4.24328 8.33304 4.05273C9.16889 2.83576 10.3252 2.12551 11.802 1.97826C14.0627 1.74873 16.1372 3.12593 16.8258 5.28701C16.986 5.79805 17.0467 6.32208 17.0467 6.85477C17.0467 10.7785 17.0423 14.7065 17.051 18.6303C17.051 19.1326 16.8907 19.4921 16.3927 19.6523C16.2888 19.6523 16.1848 19.6523 16.0809 19.6523ZM11.291 8.32292C10.9835 7.028 9.69292 5.79805 7.92595 5.92364C6.60071 6.01892 5.16288 7.23155 5.09792 8.32292C7.15939 8.32292 9.21653 8.32292 11.291 8.32292Z" fill="#383838"/>
<path d="M5.76923 12.892C5.76923 13.0783 5.77356 13.2602 5.76923 13.4464C5.7519 13.8795 5.42276 14.2129 5.00267 14.2303C4.56526 14.2476 4.20147 13.9444 4.17981 13.4984C4.15816 13.0956 4.15816 12.6928 4.17981 12.2901C4.2058 11.844 4.56526 11.5452 5.007 11.5581C5.42709 11.5711 5.75623 11.9046 5.77356 12.342C5.77789 12.5239 5.76923 12.7058 5.76923 12.892Z" fill="#383838"/>
<path d="M5.76915 17.1795C5.76915 17.3658 5.77348 17.5477 5.76915 17.7339C5.75182 18.1756 5.42268 18.5091 4.9896 18.5221C4.55219 18.5351 4.19706 18.2276 4.1754 17.7815C4.15375 17.3788 4.15375 16.976 4.17973 16.5732C4.20572 16.1488 4.56085 15.8457 4.98094 15.85C5.3967 15.8543 5.73883 16.1748 5.76915 16.5949C5.77781 16.7854 5.76915 16.9847 5.76915 17.1795Z" fill="#383838"/>
<path d="M12.2093 12.905C12.2093 13.0956 12.2179 13.2861 12.2093 13.4767C12.192 13.9011 11.8412 14.2303 11.4167 14.2303C10.988 14.2346 10.6329 13.9141 10.6155 13.4854C10.5982 13.0869 10.5982 12.6885 10.6155 12.2944C10.6329 11.87 10.9923 11.5538 11.4211 11.5581C11.8455 11.5625 12.192 11.8916 12.2093 12.316C12.2136 12.5109 12.2093 12.7058 12.2093 12.905Z" fill="#383838"/>
<path d="M12.2093 17.1969C12.2093 17.3874 12.2179 17.578 12.2093 17.7685C12.192 18.193 11.8455 18.5221 11.4167 18.5221C10.988 18.5264 10.6329 18.2103 10.6155 17.7815C10.5982 17.3831 10.5982 16.9847 10.6155 16.5906C10.6329 16.1661 10.9923 15.8457 11.4211 15.85C11.8455 15.8543 12.192 16.1835 12.2093 16.6122C12.2136 16.8028 12.2093 16.9977 12.2093 17.1969Z" fill="#383838"/>
<path d="M8.987 12.9007C8.987 13.0913 8.99566 13.2818 8.987 13.4724C8.96968 13.8925 8.63187 14.2173 8.21611 14.2303C7.78736 14.2433 7.41924 13.9358 7.39759 13.507C7.37593 13.0999 7.37593 12.6885 7.39759 12.2814C7.41924 11.8526 7.7787 11.5452 8.21178 11.5581C8.62754 11.5668 8.96535 11.8959 8.987 12.3117C8.99566 12.5066 8.987 12.7015 8.987 12.9007Z" fill="#383838"/>
<path d="M8.99133 17.1882C8.99133 17.3744 8.99566 17.5563 8.99133 17.7426C8.97401 18.18 8.6362 18.5134 8.20312 18.5221C7.77437 18.5308 7.41924 18.2233 7.39759 17.7859C7.37593 17.3831 7.37593 16.9803 7.39759 16.5776C7.41924 16.1488 7.7787 15.8413 8.20745 15.85C8.62754 15.8586 8.96968 16.1921 8.987 16.6209C8.99566 16.8071 8.987 16.9977 8.99133 17.1882Z" fill="#383838"/>
</g>
<defs>
<clipPath id="clip0_796_63">
<rect width="13.6941" height="17.7001" fill="white" transform="translate(3.35693 1.95238)"/>
</clipPath>
</defs>
</svg>
