<svg width="95" height="22" viewBox="0 0 95 22" fill="none" xmlns="http://www.w3.org/2000/svg">
<g clip-path="url(#clip0_643_3212)">
<path d="M5.63722 13.5603C5.63722 13.0416 5.63722 12.5672 5.63722 12.0411C5.80671 12.0411 5.96146 12.0411 6.11621 12.0411C7.20682 12.0411 8.30481 12.0411 9.39543 12.0411C9.98495 12.0411 10.3681 11.7076 10.3681 11.211C10.3681 10.7145 9.98495 10.3736 9.4028 10.3736C8.2827 10.3661 7.16998 10.3736 6.04989 10.3736C5.91724 10.3736 5.7846 10.3736 5.60774 10.3736C5.60774 9.8029 5.62248 9.27671 5.60038 8.75053C5.57827 8.30586 5.22456 7.99459 4.79715 7.98718C4.35501 7.97977 4.00866 8.31327 3.96445 8.76535C3.96445 8.8024 3.95708 8.83946 3.95708 8.87651C3.95708 10.6922 3.94971 12.508 3.95708 14.3237C3.95708 14.9166 4.28132 15.2278 4.88558 15.2278C6.1899 15.2352 7.48685 15.2352 8.79117 15.2278C9.07119 15.2278 9.27015 15.3019 9.46912 15.502C10.3239 16.384 11.1935 17.2585 12.0704 18.1256C12.5788 18.6221 13.36 18.4442 13.4852 17.7847C13.5295 17.5401 13.441 17.1844 13.2789 17.0139C12.2472 15.9245 11.1861 14.8573 10.1029 13.8123C9.94074 13.6567 9.6386 13.5752 9.4028 13.5752C8.31218 13.5529 7.21419 13.5603 6.12358 13.5603C5.96883 13.5603 5.81408 13.5603 5.63722 13.5603Z" fill="#383838"/>
<path d="M5.62272 21.6088C7.90712 21.5792 9.98519 20.1488 10.7737 18.0441C10.9874 17.4734 10.84 17.0065 10.3905 16.8212C9.9115 16.6211 9.48409 16.8435 9.24092 17.4289C8.54823 19.0816 7.05968 20.0302 5.31322 19.9265C3.6994 19.8301 2.25507 18.6888 1.8203 17.0806C1.40027 15.5391 1.78346 14.1977 2.92566 13.086C2.98461 13.0267 3.0583 12.9749 3.11725 12.9156C3.56676 12.5228 3.64045 12.0262 3.31621 11.6557C2.98461 11.2777 2.49088 11.2777 2.034 11.6483C0.191744 13.1601 -0.478837 15.6725 0.346494 17.9551C1.14235 20.1414 3.30148 21.631 5.62272 21.6088Z" fill="#383838"/>
<path d="M4.78258 7.25347C5.67423 7.25347 6.40376 6.542 6.41113 5.64526C6.41113 4.74852 5.69634 4.00741 4.81205 3.99999C3.90566 3.99258 3.16139 4.73369 3.16876 5.63044C3.16876 6.53459 3.88355 7.25347 4.78258 7.25347Z" fill="#383838"/>
</g>
<path d="M18.08 3.56C17.328 5.176 16.016 6.744 14.656 7.752C14.944 7.944 15.424 8.328 15.648 8.552C16.992 7.432 18.368 5.704 19.248 3.896L18.08 3.56ZM17.52 5.4L17.12 6.488H28.544V5.4H17.52ZM14.848 9.192V10.28H29.152V9.192H14.848ZM15.104 13.016V14.104H28.928V13.016H15.104ZM19.952 5.768V13.544H20.992V5.768H19.952ZM17.088 5.768V13.592H18.176V5.768H17.088ZM22.848 5.768V13.592H23.872V5.768H22.848ZM25.776 5.768V13.592H26.88V5.768H25.776ZM19.52 15.192C19.712 16.152 19.84 17.4 19.84 18.152L21.024 17.976C21.008 17.24 20.832 16.024 20.624 15.08L19.52 15.192ZM22.784 15.192C23.2 16.152 23.6 17.4 23.744 18.168L24.928 17.912C24.768 17.16 24.336 15.912 23.904 15L22.784 15.192ZM26.048 15.096C26.848 16.088 27.76 17.464 28.144 18.312L29.344 17.88C28.912 17.016 27.968 15.672 27.168 14.712L26.048 15.096ZM16.72 14.776C16.32 15.944 15.568 17.16 14.736 17.832L15.872 18.312C16.72 17.544 17.456 16.264 17.872 15.064L16.72 14.776ZM37.664 11.72H43.104V12.776H37.664V11.72ZM37.664 9.896H43.104V10.936H37.664V9.896ZM36.576 9.096V13.592H44.224V9.096H36.576ZM39.776 3.56V5.432H40.928V3.56H39.776ZM39.776 13.4V18.28H40.928V13.4H39.776ZM36.128 4.744V5.72H44.928V4.744H36.128ZM35.504 7.208V8.2H45.28V7.208H35.504ZM35.36 14.776V15.768H45.344V14.776H35.36ZM42.16 5.512C42 6.008 41.664 6.744 41.424 7.224L42.416 7.448C42.688 7.016 42.992 6.376 43.312 5.768L42.16 5.512ZM37.504 5.768C37.76 6.312 38 7.016 38.064 7.496L39.12 7.224C39.024 6.776 38.784 6.072 38.496 5.56L37.504 5.768ZM31.28 4.264V18.296H32.368V5.352H35.056V4.264H31.28ZM34.688 4.264V4.584C34.352 5.688 33.76 7.592 33.184 9.048C34.336 10.296 34.624 11.384 34.624 12.248C34.624 12.728 34.544 13.16 34.288 13.336C34.16 13.432 33.984 13.48 33.792 13.48C33.536 13.512 33.232 13.496 32.864 13.464C33.04 13.768 33.136 14.232 33.152 14.52C33.52 14.536 33.92 14.536 34.24 14.504C34.56 14.456 34.848 14.36 35.072 14.216C35.52 13.896 35.696 13.224 35.696 12.36C35.696 11.368 35.44 10.248 34.256 8.92C34.8 7.64 35.392 5.992 35.856 4.68L35.088 4.216L34.896 4.264H34.688ZM51.952 3.576V7.24C51.952 8.264 52.224 8.536 53.28 8.536C53.504 8.536 54.704 8.536 54.928 8.536C55.776 8.536 56.048 8.184 56.128 6.76C55.872 6.712 55.472 6.568 55.264 6.392C55.232 7.496 55.152 7.624 54.816 7.624C54.56 7.624 53.584 7.624 53.392 7.624C52.976 7.624 52.912 7.576 52.912 7.24V3.576H51.952ZM55.104 4.344C54.432 4.76 53.328 5.256 52.384 5.64C52.512 5.864 52.64 6.168 52.704 6.36C53.68 6.04 54.88 5.576 55.776 5.112L55.104 4.344ZM52.48 8.664C52.256 9.928 51.888 11.176 51.312 12.056C51.552 12.152 51.968 12.376 52.16 12.488C52.688 11.576 53.136 10.216 53.408 8.856L52.48 8.664ZM52.56 10.136L52.288 11.048H55.68V10.136H52.56ZM51.552 12.92V13.848H55.792V12.92H51.552ZM55.968 4.136V5.08H60.352V4.136H55.968ZM55.824 9.032V9.992H60.704V9.032H55.824ZM53.312 10.504V12.632C53.312 14.04 53.152 16.216 51.104 17.656C51.328 17.816 51.616 18.104 51.76 18.328C53.984 16.664 54.256 14.296 54.256 12.632V10.504H53.312ZM53.328 14.808C53.888 15.352 54.528 16.136 54.848 16.664L55.504 16.056C55.216 15.576 54.56 14.824 53.984 14.296L53.328 14.808ZM60.096 4.136V4.344C59.632 5.144 58.72 6.248 57.936 6.904C58.112 7.032 58.4 7.32 58.544 7.512C59.456 6.776 60.528 5.624 61.248 4.584L60.544 4.072L60.352 4.136H60.096ZM56.368 6.6C57.472 7.192 58.816 8.088 59.456 8.76L60.112 8.008C59.44 7.352 58.096 6.488 56.96 5.944L56.368 6.6ZM60.384 9.032V9.176C60.256 9.928 60.08 10.776 59.904 11.368L60.72 11.656C60.944 11.016 61.168 10.04 61.36 9.192L60.688 8.984L60.528 9.032H60.384ZM58.112 9.432V17.016L59.056 17.64V9.432H58.112ZM58.592 12.68V13.656H61.184V12.68H58.592ZM56.992 13.944L56.224 14.232C56.96 17.4 58.304 18.072 60.032 18.072H61.184C61.232 17.8 61.36 17.304 61.504 17.048C61.184 17.064 60.336 17.064 60.112 17.064C58.784 17.064 57.568 16.568 56.992 13.944ZM56.32 11.672C56.24 14.2 55.984 16.44 54.736 17.656C54.96 17.816 55.248 18.12 55.392 18.328C56.816 16.92 57.12 14.504 57.232 11.672H56.32ZM46.688 4.456V5.528H51.632V4.456H46.688ZM48.224 9.272V10.328H50.192V15.032H48.224V16.088H51.216V9.272H48.224ZM48.448 4.984C48.112 7.928 47.536 10.76 46.4 12.568C46.608 12.84 46.944 13.4 47.056 13.656C48.384 11.576 49.104 8.44 49.52 5.144L48.448 4.984ZM47.728 9.272V17.416H48.704V9.272H47.728ZM62.704 4.696V5.768H67.696V4.696H62.704ZM62.88 9.32V10.408H67.472V9.32H62.88ZM67.552 8.296V9.288H77.392V8.296H67.552ZM62.528 14.728L62.816 15.88C64.272 15.448 66.208 14.872 68.032 14.328L67.888 13.24C65.92 13.816 63.888 14.392 62.528 14.728ZM69.632 11.096H75.136V12.728H69.632V11.096ZM68.56 10.184V13.64H76.256V10.184H68.56ZM74.016 4.968H75.584V6.536H74.016V4.968ZM71.632 4.968H73.168V6.536H71.632V4.968ZM69.312 4.968H70.784V6.536H69.312V4.968ZM68.304 4.104V7.416H76.624V4.104H68.304ZM72.8 13.224L71.904 13.48C72.736 15.688 74.4 17.496 76.576 18.296C76.752 18.008 77.088 17.576 77.36 17.336C75.216 16.728 73.552 15.112 72.8 13.224ZM76.128 13.784C75.552 14.248 74.528 14.936 73.792 15.32L74.496 15.88C75.248 15.528 76.24 14.968 76.976 14.424L76.128 13.784ZM64.688 5.16V14.776L65.792 14.568V5.16H64.688ZM72.16 12.968C70.896 14.392 68.448 15.8 66.416 16.472C66.656 16.68 66.96 17.08 67.12 17.336C69.168 16.552 71.664 15 73.024 13.368L72.16 12.968ZM70.8 14.744V18.296H71.936V13.944L70.8 14.744ZM84 4.824V5.8H92.976V4.824H84ZM83.488 7.656V8.664H93.344V7.656H83.488ZM87.792 3.592V5.464H88.976V3.592H87.792ZM90.32 5.736C90.144 6.248 89.808 7.032 89.52 7.528L90.56 7.768C90.832 7.32 91.168 6.648 91.488 6.008L90.32 5.736ZM85.536 5.992C85.84 6.552 86.112 7.288 86.192 7.768L87.296 7.464C87.184 6.984 86.896 6.264 86.56 5.752L85.536 5.992ZM85.76 12.296H91.264V13.496H85.76V12.296ZM85.76 10.328H91.264V11.512H85.76V10.328ZM84.624 9.496V14.328H92.432V9.496H84.624ZM89.088 14.008V16.744C89.088 17.864 89.376 18.184 90.528 18.184C90.768 18.184 91.872 18.184 92.112 18.184C93.056 18.184 93.36 17.752 93.472 15.96C93.168 15.896 92.688 15.704 92.448 15.528C92.416 16.952 92.352 17.144 91.984 17.144C91.744 17.144 90.864 17.144 90.688 17.144C90.304 17.144 90.24 17.08 90.24 16.728V14.008H89.088ZM86.304 13.976C86 15.672 85.2 16.728 82.4 17.288C82.624 17.512 82.944 18.008 83.072 18.296C86.16 17.544 87.12 16.168 87.488 13.976H86.304ZM78.832 7.48V8.616H83.52V7.48H78.832ZM80.704 3.736V14.168H81.824V3.736H80.704ZM78.528 14.536L78.96 15.736C80.368 15.064 82.224 14.2 83.952 13.352L83.68 12.28C81.792 13.144 79.824 14.024 78.528 14.536Z" fill="#383838"/>
<defs>
<clipPath id="clip0_643_3212">
<rect width="13.5001" height="17.6088" fill="white" transform="matrix(-1 0 0 1 13.5 4)"/>
</clipPath>
</defs>
</svg>
