<svg width="202" height="75" viewBox="0 0 202 75" fill="none" xmlns="http://www.w3.org/2000/svg">
<rect x="1" y="-1" width="200" height="73" rx="36.5" transform="matrix(1 0 0 -1 0 73)" stroke="#E64637" stroke-width="2"/>
<path d="M32.239 30.667V33.44H42.015V30.667H32.239ZM29.231 44.297V46.835H45.07V44.297H29.231ZM13.486 18.541V21.408H26.646V18.541H13.486ZM25.659 18.541V19.105C22.792 25.497 15.319 30.526 8.269 32.641C8.927 33.252 9.773 34.474 10.196 35.273C17.81 32.641 25.565 27.377 29.09 19.481L26.881 18.4L26.27 18.541H25.659ZM33.085 16.52L30.218 17.413C34.025 25.638 41.216 31.842 50.193 34.615C50.71 33.769 51.603 32.547 52.355 31.842C43.613 29.539 36.469 23.805 33.085 16.52ZM42.673 16.849C40.981 18.776 37.879 21.408 35.717 23.006L37.785 24.651C40.041 23.1 43.002 20.844 45.305 18.682L42.673 16.849ZM48.313 21.596C46.574 23.429 43.378 26.061 41.122 27.612L43.284 29.257C45.587 27.8 48.642 25.544 50.898 23.382L48.313 21.596ZM14.943 30.855V33.628H23.309V42.135H26.458V30.855H14.943ZM13.721 38.563C13.204 41.994 12.264 46.412 11.465 49.232L14.426 49.749C15.178 46.835 16.118 42.229 16.776 38.563H13.721ZM23.309 45.707V46.177C22.745 52.898 22.228 55.577 21.382 56.376C21.006 56.752 20.489 56.799 19.596 56.799C18.703 56.799 16.165 56.752 13.533 56.517C14.097 57.363 14.473 58.632 14.567 59.572C17.152 59.666 19.643 59.713 20.865 59.666C22.322 59.525 23.168 59.29 24.014 58.491C25.236 57.269 25.847 54.261 26.458 47.117C26.505 46.694 26.552 45.707 26.552 45.707H23.309ZM30.97 30.667V34.333C30.97 36.589 30.359 39.174 26.599 41.195C27.257 41.618 28.385 42.746 28.855 43.404C33.038 40.96 34.025 37.435 34.025 34.38V30.667H30.97ZM44.271 44.297V44.767C41.686 51.864 34.636 55.718 26.552 57.222C27.116 57.88 27.821 59.055 28.103 59.807C36.986 57.833 44.365 53.65 47.467 44.908L45.446 44.156L44.882 44.297H44.271ZM33.696 46.647L30.923 47.399C34.025 53.979 40.323 58.162 48.924 59.76C49.394 58.914 50.287 57.551 51.039 56.846C42.72 55.671 36.422 52.099 33.696 46.647ZM15.272 38.563L14.802 41.336H24.484V38.563H15.272ZM13.862 45.707L13.345 48.433H24.202V45.707H13.862ZM40.37 30.667V37.717C40.37 39.973 40.605 40.678 41.263 41.289C41.874 41.806 42.908 41.994 43.848 41.994C44.318 41.994 45.634 41.994 46.151 41.994C46.809 41.994 47.749 41.947 48.219 41.759C48.83 41.571 49.394 41.195 49.629 40.678C49.958 40.114 50.099 38.751 50.193 37.529C49.347 37.294 48.219 36.73 47.608 36.213C47.561 37.388 47.514 38.281 47.42 38.704C47.279 39.033 47.044 39.268 46.856 39.362C46.715 39.409 46.245 39.409 45.822 39.409C45.399 39.409 44.788 39.409 44.459 39.409C44.083 39.409 43.848 39.409 43.66 39.268C43.472 39.127 43.472 38.657 43.472 37.999V30.667H40.37ZM12.217 24.134C14.426 25.497 17.011 27.518 18.233 28.975L20.395 26.813C19.126 25.45 16.447 23.476 14.285 22.207L12.217 24.134ZM68.946 35.179V38.422H98.603V35.179H68.946ZM70.45 25.497V28.646H97.193V25.497H70.45ZM81.542 26.954V33.957C81.542 38.798 80.696 45.707 69.275 50.313C70.074 50.924 71.155 52.146 71.625 52.898C83.469 47.587 85.067 39.879 85.067 34.004V26.954H81.542ZM86.054 37.247L82.999 37.905C85.067 45.566 89.344 50.642 96.441 53.133C96.911 52.193 97.898 50.83 98.697 50.125C91.976 48.198 87.84 43.827 86.054 37.247ZM66.267 35.085H56.256V38.375H62.836V51.723H66.267V35.085ZM66.267 50.172H63.071C60.674 52.193 57.901 54.261 55.645 55.765L57.525 59.384C60.063 57.316 62.46 55.295 64.716 53.274C67.724 56.987 71.954 58.632 78.064 58.867C83.281 59.055 93.01 58.961 98.18 58.773C98.321 57.692 98.932 56 99.308 55.154C93.762 55.53 83.187 55.671 78.064 55.483C72.659 55.248 68.476 53.65 66.267 50.172ZM56.773 19.81C59.828 21.878 63.353 25.074 64.857 27.33L67.63 25.027C66.032 22.724 62.46 19.669 59.358 17.695L56.773 19.81ZM91.036 16.52C90.049 18.917 88.122 22.301 86.665 24.416L89.532 25.497C91.083 23.523 93.01 20.421 94.608 17.742L91.036 16.52ZM72.283 17.93C74.116 20.28 75.855 23.523 76.466 25.638L79.662 24.228C79.004 22.066 77.171 18.964 75.291 16.708L72.283 17.93ZM126.897 27.847V30.573H139.869V27.847H126.897ZM125.299 35.978H129.623V41.994H125.299V35.978ZM122.808 33.534V44.438H132.255V33.534H122.808ZM137.143 35.978H141.749V41.994H137.143V35.978ZM134.652 33.534V44.438H144.428V33.534H134.652ZM126.333 45.707C125.628 51.065 123.701 55.248 119.988 57.833C120.693 58.303 121.821 59.384 122.244 59.948C126.239 56.893 128.495 52.193 129.388 45.895L126.333 45.707ZM125.816 51.77C127.743 53.556 130.093 56.047 131.221 57.645L133.242 55.577C132.114 54.026 129.67 51.676 127.79 49.984L125.816 51.77ZM138.083 45.66C137.331 50.971 135.31 55.107 131.597 57.692C132.349 58.162 133.477 59.29 133.9 59.807C137.895 56.752 140.292 52.099 141.185 45.848L138.083 45.66ZM137.378 51.958C139.822 54.355 142.736 57.692 144.099 59.76L146.402 57.974C144.992 55.953 142.031 52.71 139.634 50.407L137.378 51.958ZM133.101 19.857C135.78 24.181 140.48 28.834 144.945 31.56C145.368 30.667 146.12 29.351 146.778 28.505C142.313 26.155 137.566 21.502 134.605 16.708H131.362C129.2 21.173 124.641 26.155 119.847 28.928C120.458 29.68 121.21 30.949 121.586 31.795C126.333 28.834 130.751 24.04 133.101 19.857ZM106.687 25.638V28.411H119.753V25.638H106.687ZM106.687 32.735V35.461H119.847V32.735H106.687ZM104.901 39.879V42.699H119.283V39.879H104.901ZM111.998 20.045V41.336H114.818V20.045H111.998ZM113.408 45.284C114.536 47.211 115.664 49.749 116.134 51.441L117.826 50.736C117.356 49.091 116.181 46.553 115.006 44.72L113.408 45.284ZM110.541 45.942C111.434 48.339 112.186 51.488 112.374 53.556L114.207 53.133C114.019 51.112 113.173 47.963 112.233 45.566L110.541 45.942ZM107.674 46.412C108.097 49.185 108.332 52.663 108.238 54.966L110.165 54.731C110.212 52.428 109.977 48.95 109.507 46.177L107.674 46.412ZM104.572 45.566C104.431 49.514 103.961 53.697 102.363 56.047L104.337 57.175C106.076 54.59 106.546 50.125 106.734 45.942L104.572 45.566ZM104.901 18.447V41.43H107.815V21.314H120.646V18.447H104.901ZM118.155 39.879V40.396C117.732 51.676 117.309 55.718 116.51 56.611C116.181 57.081 115.852 57.175 115.288 57.175C114.677 57.175 113.314 57.175 111.763 56.987C112.139 57.739 112.421 58.961 112.515 59.76C114.066 59.854 115.664 59.854 116.557 59.76C117.638 59.666 118.343 59.384 119.001 58.491C120.129 57.128 120.552 52.992 121.022 41.242C121.069 40.772 121.069 39.879 121.069 39.879H118.155ZM167.176 18.353V21.173H176.341V18.353H167.176ZM172.44 30.009V32.829H185.647V30.009H172.44ZM165.907 55.248V58.35H192.744V55.248H165.907ZM187.997 17.883C186.728 19.152 184.378 21.173 182.78 22.301L184.284 23.805C185.976 22.771 188.138 21.314 190.018 19.81L187.997 17.883ZM190.864 22.771C189.595 24.134 187.151 26.155 185.553 27.283L187.057 28.928C188.796 27.894 191.005 26.343 192.932 24.839L190.864 22.771ZM183.767 46.929C183.297 49.091 182.122 52.287 181.276 54.308L184.096 55.107C185.036 53.18 186.117 50.313 187.104 47.728L183.767 46.929ZM171.312 47.728C172.393 50.078 173.38 53.133 173.662 55.154L176.811 54.214C176.482 52.193 175.448 49.185 174.32 46.976L171.312 47.728ZM172.393 38.657H185.6V43.78H172.393V38.657ZM169.15 35.837V46.6H188.984V35.837H169.15ZM166.471 24.698C168.257 26.061 170.325 28.082 171.265 29.492L173.38 27.236C172.393 25.873 170.278 23.993 168.445 22.724L166.471 24.698ZM175.072 18.353V18.917C173.521 25.544 169.103 31.231 164.309 33.722C165.014 34.38 165.907 35.602 166.33 36.401C171.641 33.252 176.247 27.142 178.221 19.011L176.2 18.212L175.636 18.353H175.072ZM182.404 16.661L179.443 17.319C181.511 25.403 185.412 32.265 191.287 35.649C191.804 34.803 192.791 33.534 193.59 32.923C188.091 30.15 184.237 23.758 182.404 16.661ZM151.807 30.761V33.581H164.497V30.761H151.807ZM152.042 18.212V21.032H164.309V18.212H152.042ZM151.807 37.059V39.879H164.497V37.059H151.807ZM149.786 24.369V27.283H165.86V24.369H149.786ZM153.452 43.404V46.318H161.536V54.167H153.452V57.081H164.497V43.404H153.452ZM151.713 43.404V59.29H154.721V43.404H151.713Z" fill="#E64637"/>
</svg>
