<svg width="51" height="41" viewBox="0 0 51 41" fill="none" xmlns="http://www.w3.org/2000/svg">
<path d="M31.1234 32.6485C31.1234 34.8677 31.1234 37.0023 31.1234 39.1263C31.1234 40.2676 30.7958 40.5847 29.6334 40.5847C26.4948 40.5847 23.3669 40.5847 20.2284 40.5847C19.2139 40.5847 18.8546 40.2254 18.8546 39.2215C18.8546 37.2453 18.8546 35.2798 18.8546 33.3037C18.8546 33.1135 18.8546 32.9233 18.8546 32.6485C18.284 32.6485 17.7662 32.6485 17.2378 32.6485C14.6805 32.6485 12.1337 32.6591 9.57641 32.6591C5.24377 32.6591 1.3127 29.5628 0.287659 25.3464C-0.927593 20.3058 1.7988 15.3497 6.74435 13.7117C7.12477 13.5849 7.26215 13.4053 7.31499 13.0248C8.023 8.32234 11.9541 5.21553 16.6671 5.64879C17.4808 5.72276 18.2734 5.97638 19.1399 6.16659C19.7845 4.94077 20.6088 3.78892 21.7184 2.85899C25.0999 0.00579095 28.9359 -0.76563 33.0678 0.787779C37.1996 2.34119 39.5456 5.46914 40.2008 9.84405C40.2536 10.1928 40.3276 10.3513 40.7186 10.3936C45.6747 10.8902 49.7854 14.7896 50.5463 19.6717C51.3283 24.7758 48.7392 29.4889 44.0156 31.5706C42.3671 32.2998 40.634 32.6485 38.8376 32.6485C36.4916 32.6485 34.1562 32.6591 31.8102 32.6697C31.5989 32.6591 31.3981 32.6485 31.1234 32.6485ZM18.8229 27.3965C18.1149 27.3965 17.4597 27.386 16.794 27.3965C16.2656 27.4071 15.8535 27.2274 15.6527 26.7202C15.4625 26.2235 15.6315 25.8114 16.012 25.4416C18.8229 22.6518 21.6127 19.8408 24.4236 17.0405C25.1105 16.3536 25.6389 16.3641 26.3152 17.051C27.8897 18.615 29.4537 20.179 31.0283 21.7535C32.2646 22.9899 33.4905 24.2157 34.7163 25.4521C35.2658 26.0122 35.3081 26.7096 34.7797 27.1112C34.5366 27.2908 34.1668 27.3754 33.8603 27.3965C32.9727 27.4282 32.0744 27.4071 31.1656 27.4071C31.1656 28.4744 31.1656 29.4783 31.1656 30.4928C31.303 30.5033 31.4193 30.535 31.5461 30.535C34.0505 30.5245 36.5444 30.5667 39.0489 30.4928C40.0528 30.4611 41.099 30.3237 42.0606 30.0172C45.7698 28.802 48.1369 26.3081 48.5173 22.3559C48.8872 18.6044 47.2915 15.6878 44.0896 13.6906C42.663 12.8029 41.0779 12.4542 39.3976 12.4542C38.5734 12.4542 38.2247 12.0949 38.2035 11.2601C38.193 10.9748 38.1718 10.7 38.1507 10.4147C37.7808 6.28283 34.6212 2.90126 30.5633 2.27778C26.4314 1.64374 22.4264 3.8946 20.8201 7.74114C20.3446 8.87185 19.9113 9.04093 18.844 8.48086C14.7439 6.33567 9.8089 9.04093 9.4179 13.6589C9.28053 15.2334 9.28053 15.2334 7.79052 15.635C4.14476 16.6178 1.74596 20.1895 2.23206 23.9198C2.71816 27.7347 5.94122 30.5773 9.76663 30.5667C12.6198 30.5667 15.473 30.5562 18.3262 30.5562C18.4953 30.5562 18.6644 30.535 18.8757 30.5245C18.8229 29.4889 18.8229 28.4955 18.8229 27.3965ZM28.9993 38.4289C28.9993 38.1647 28.9993 37.9534 28.9993 37.7526C28.9993 33.9906 28.9993 30.218 28.9993 26.456C28.9993 25.674 29.3797 25.283 30.1617 25.2725C30.5527 25.2619 30.9437 25.2725 31.377 25.2725C29.3163 23.2224 27.3191 21.2252 25.4275 19.3547C23.462 21.2991 21.4542 23.2964 19.4781 25.2513C20.8624 25.3781 20.9786 25.505 20.9786 27.0267C20.9786 30.6196 20.9786 34.2125 20.9786 37.7949C20.9786 37.9956 20.9786 38.1964 20.9786 38.4289C23.6839 38.4289 26.2941 38.4289 28.9993 38.4289Z" fill="#AAAAAA"/>
</svg>
